<svg width="12" height="13" viewBox="0 0 12 13" fill="none" xmlns="http://www.w3.org/2000/svg">
<path d="M5.5 6V4H6.5V6H8.5V7H6.5V9H5.5V7H3.5V6H5.5ZM6 11.5C3.2385 11.5 1 9.2615 1 6.5C1 3.7385 3.2385 1.5 6 1.5C8.7615 1.5 11 3.7385 11 6.5C11 9.2615 8.7615 11.5 6 11.5ZM6 10.5C7.06087 10.5 8.07828 10.0786 8.82843 9.32843C9.57857 8.57828 10 7.56087 10 6.5C10 5.43913 9.57857 4.42172 8.82843 3.67157C8.07828 2.92143 7.06087 2.5 6 2.5C4.93913 2.5 3.92172 2.92143 3.17157 3.67157C2.42143 4.42172 2 5.43913 2 6.5C2 7.56087 2.42143 8.57828 3.17157 9.32843C3.92172 10.0786 4.93913 10.5 6 10.5Z" fill="#17171A"/>
</svg>
