<svg width="14" height="15" viewBox="0 0 14 15" fill="none" xmlns="http://www.w3.org/2000/svg">
<path d="M7.00001 14.1668C3.31801 14.1668 0.333344 11.1822 0.333344 7.50016C0.333344 3.81816 3.31801 0.833496 7.00001 0.833496C10.682 0.833496 13.6667 3.81816 13.6667 7.50016C13.6667 11.1822 10.682 14.1668 7.00001 14.1668ZM7.00001 12.8335C8.4145 12.8335 9.77105 12.2716 10.7712 11.2714C11.7714 10.2712 12.3333 8.91465 12.3333 7.50016C12.3333 6.08567 11.7714 4.72912 10.7712 3.72893C9.77105 2.72873 8.4145 2.16683 7.00001 2.16683C5.58552 2.16683 4.22897 2.72873 3.22877 3.72893C2.22858 4.72912 1.66668 6.08567 1.66668 7.50016C1.66668 8.91465 2.22858 10.2712 3.22877 11.2714C4.22897 12.2716 5.58552 12.8335 7.00001 12.8335ZM6.33534 10.1668L3.50668 7.33816L4.44934 6.3955L6.33534 8.2815L10.106 4.51016L11.0493 5.45283L6.33534 10.1668Z" fill="white"/>
</svg>
