<svg width="14" height="15" viewBox="0 0 14 15" fill="none" xmlns="http://www.w3.org/2000/svg">
<path d="M7 14.1668C3.318 14.1668 0.333332 11.1822 0.333332 7.50016C0.333332 3.81816 3.318 0.833496 7 0.833496C10.682 0.833496 13.6667 3.81816 13.6667 7.50016C13.6667 11.1822 10.682 14.1668 7 14.1668ZM7 12.8335C8.41449 12.8335 9.77104 12.2716 10.7712 11.2714C11.7714 10.2712 12.3333 8.91465 12.3333 7.50016C12.3333 6.08567 11.7714 4.72912 10.7712 3.72893C9.77104 2.72873 8.41449 2.16683 7 2.16683C5.58551 2.16683 4.22896 2.72873 3.22876 3.72893C2.22857 4.72912 1.66667 6.08567 1.66667 7.50016C1.66667 8.91465 2.22857 10.2712 3.22876 11.2714C4.22896 12.2716 5.58551 12.8335 7 12.8335ZM6.33533 10.1668L3.50667 7.33816L4.44933 6.3955L6.33533 8.2815L10.106 4.51016L11.0493 5.45283L6.33533 10.1668Z" fill="#00BFB2"/>
</svg>
