<svg width="16" height="17" viewBox="0 0 16 17" fill="none" xmlns="http://www.w3.org/2000/svg">
<path d="M8 15.1668C4.318 15.1668 1.33333 12.1822 1.33333 8.50016C1.33333 4.81816 4.318 1.8335 8 1.8335C11.682 1.8335 14.6667 4.81816 14.6667 8.50016C14.6667 12.1822 11.682 15.1668 8 15.1668ZM8 13.8335C9.41449 13.8335 10.771 13.2716 11.7712 12.2714C12.7714 11.2712 13.3333 9.91465 13.3333 8.50016C13.3333 7.08567 12.7714 5.72912 11.7712 4.72893C10.771 3.72873 9.41449 3.16683 8 3.16683C6.58551 3.16683 5.22896 3.72873 4.22876 4.72893C3.22857 5.72912 2.66667 7.08567 2.66667 8.50016C2.66667 9.91465 3.22857 11.2712 4.22876 12.2714C5.22896 13.2716 6.58551 13.8335 8 13.8335ZM7.33533 11.1668L4.50667 8.33816L5.44933 7.3955L7.33533 9.2815L11.106 5.51016L12.0493 6.45283L7.33533 11.1668Z" fill="#00BFB2"/>
</svg>
