<svg width="16" height="17" viewBox="0 0 16 17" fill="none" xmlns="http://www.w3.org/2000/svg">
<path d="M8.00001 15.1668C4.31801 15.1668 1.33334 12.1822 1.33334 8.50016C1.33334 4.81816 4.31801 1.8335 8.00001 1.8335C11.682 1.8335 14.6667 4.81816 14.6667 8.50016C14.6667 12.1822 11.682 15.1668 8.00001 15.1668ZM8.00001 13.8335C9.4145 13.8335 10.7711 13.2716 11.7712 12.2714C12.7714 11.2712 13.3333 9.91465 13.3333 8.50016C13.3333 7.08567 12.7714 5.72912 11.7712 4.72893C10.7711 3.72873 9.4145 3.16683 8.00001 3.16683C6.58552 3.16683 5.22897 3.72873 4.22877 4.72893C3.22858 5.72912 2.66668 7.08567 2.66668 8.50016C2.66668 9.91465 3.22858 11.2712 4.22877 12.2714C5.22897 13.2716 6.58552 13.8335 8.00001 13.8335ZM7.33534 11.1668L4.50668 8.33816L5.44934 7.3955L7.33534 9.2815L11.106 5.51016L12.0493 6.45283L7.33534 11.1668Z" fill="white"/>
</svg>
