<svg width="49" height="48" viewBox="0 0 49 48" fill="none" xmlns="http://www.w3.org/2000/svg">
<rect x="0.5" width="48" height="48" rx="24" fill="#C2D7FF"/>
<path d="M29.5 29H34.5V31H31.5V34H29.5V29ZM19.5 19H14.5V17H17.5V14H19.5V19ZM30.864 27.536L29.45 26.12L30.864 24.706C31.3316 24.2424 31.7031 23.6911 31.9571 23.0836C32.211 22.4761 32.3425 21.8244 32.344 21.166C32.3454 20.5075 32.2168 19.8553 31.9655 19.2467C31.7142 18.6381 31.3451 18.0851 30.8795 17.6195C30.4139 17.1539 29.8609 16.7848 29.2523 16.5335C28.6437 16.2822 27.9915 16.1536 27.333 16.155C26.6746 16.1565 26.0229 16.288 25.4154 16.5419C24.8079 16.7959 24.2566 17.1674 23.793 17.635L22.379 19.05L20.964 17.636L22.38 16.222C23.6928 14.9092 25.4734 14.1716 27.33 14.1716C29.1866 14.1716 30.9672 14.9092 32.28 16.222C33.5928 17.5348 34.3304 19.3154 34.3304 21.172C34.3304 23.0286 33.5928 24.8092 32.28 26.122L30.865 27.536H30.864ZM28.036 30.364L26.621 31.778C25.3082 33.0908 23.5276 33.8284 21.671 33.8284C19.8144 33.8284 18.0338 33.0908 16.721 31.778C15.4082 30.4652 14.6706 28.6846 14.6706 26.828C14.6706 24.9714 15.4082 23.1908 16.721 21.878L18.136 20.464L19.55 21.88L18.136 23.294C17.6684 23.7576 17.2969 24.3089 17.0429 24.9164C16.789 25.5239 16.6575 26.1756 16.656 26.834C16.6546 27.4925 16.7832 28.1447 17.0345 28.7533C17.2858 29.3619 17.6549 29.9149 18.1205 30.3805C18.5861 30.8461 19.1391 31.2152 19.7477 31.4665C20.3563 31.7178 21.0085 31.8464 21.667 31.845C22.3254 31.8435 22.9771 31.712 23.5846 31.4581C24.1921 31.2041 24.7434 30.8326 25.207 30.365L26.621 28.951L28.036 30.365V30.364ZM27.328 19.757L28.743 21.172L21.672 28.242L20.257 26.828L27.328 19.758V19.757Z" fill="#0B5FFF"/>
</svg>
