<svg width="22" height="28" viewBox="0 0 22 28" fill="none" xmlns="http://www.w3.org/2000/svg">
  <path fill-rule="evenodd" clip-rule="evenodd" d="M11 0.585785L21.4142 11L14.5356 17.8787C12.5829 19.8313 9.41712 19.8313 7.4645 17.8787L0.585815 11L11 0.585785ZM3.41424 11L8.87871 16.4645C10.0503 17.636 11.9498 17.636 13.1213 16.4645L18.5858 11L11 3.41421L3.41424 11Z" fill="#17171A"/>
  <path fill-rule="evenodd" clip-rule="evenodd" d="M7.4645 10.1213C9.41712 8.1687 12.5829 8.16871 14.5356 10.1213L21.4142 17L11 27.4142L0.585815 17L7.4645 10.1213ZM13.1213 11.5355C11.9498 10.364 10.0503 10.364 8.87871 11.5355L3.41424 17L11 24.5858L18.5858 17L13.1213 11.5355Z" fill="#17171A"/>
  <path d="M13 14C13 15.1046 12.1046 16 11 16C9.89543 16 9 15.1046 9 14C9 12.8954 9.89543 12 11 12C12.1046 12 13 12.8954 13 14Z" fill="#17171A"/>
</svg>
