<svg width="14" height="19" viewBox="0 0 14 19" fill="none" xmlns="http://www.w3.org/2000/svg">
<path d="M0.333374 18.333C0.333374 16.5649 1.03575 14.8692 2.286 13.619C3.53624 12.3687 5.23193 11.6663 7.00004 11.6663C8.76815 11.6663 10.4638 12.3687 11.7141 13.619C12.9643 14.8692 13.6667 16.5649 13.6667 18.333H12C12 17.0069 11.4733 15.7352 10.5356 14.7975C9.59789 13.8598 8.32612 13.333 7.00004 13.333C5.67396 13.333 4.40219 13.8598 3.46451 14.7975C2.52682 15.7352 2.00004 17.0069 2.00004 18.333H0.333374ZM7.00004 10.833C4.23754 10.833 2.00004 8.59551 2.00004 5.83301C2.00004 3.07051 4.23754 0.833008 7.00004 0.833008C9.76254 0.833008 12 3.07051 12 5.83301C12 8.59551 9.76254 10.833 7.00004 10.833ZM7.00004 9.16634C8.84171 9.16634 10.3334 7.67467 10.3334 5.83301C10.3334 3.99134 8.84171 2.49967 7.00004 2.49967C5.15837 2.49967 3.66671 3.99134 3.66671 5.83301C3.66671 7.67467 5.15837 9.16634 7.00004 9.16634Z" fill="#787980"/>
</svg>
