<svg width="40" height="40" viewBox="0 0 40 40" fill="none" xmlns="http://www.w3.org/2000/svg">
<circle cx="20" cy="20" r="20" fill="#E7E7ED"/>
<path d="M14.382 13.968C15.9757 12.6911 17.9578 11.9967 20 12C22.125 12 24.078 12.736 25.618 13.968L27.071 12.515L28.485 13.929L27.032 15.382C28.0897 16.7061 28.7521 18.302 28.9428 19.986C29.1336 21.6699 28.845 23.3735 28.1103 24.9007C27.3756 26.4279 26.2246 27.7167 24.7898 28.6186C23.355 29.5205 21.6947 29.999 20 29.999C18.3053 29.999 16.645 29.5205 15.2102 28.6186C13.7754 27.7167 12.6244 26.4279 11.8897 24.9007C11.155 23.3735 10.8664 21.6699 11.0572 19.986C11.248 18.302 11.9103 16.7061 12.968 15.382L11.515 13.93L12.929 12.516L14.382 13.969V13.968ZM20 28C20.9193 28 21.8295 27.8189 22.6788 27.4672C23.5281 27.1154 24.2997 26.5998 24.9498 25.9497C25.5998 25.2997 26.1154 24.5281 26.4672 23.6788C26.8189 22.8295 27 21.9193 27 21C27 20.0807 26.8189 19.1705 26.4672 18.3212C26.1154 17.4719 25.5998 16.7003 24.9498 16.0503C24.2997 15.4002 23.5281 14.8846 22.6788 14.5328C21.8295 14.1811 20.9193 14 20 14C18.1435 14 16.363 14.7375 15.0503 16.0503C13.7375 17.363 13 19.1435 13 21C13 22.8565 13.7375 24.637 15.0503 25.9497C16.363 27.2625 18.1435 28 20 28ZM21 20H24L19 26.5V22H16L21 15.495V20ZM16 9H24V11H16V9Z" fill="#393A4A"/>
</svg>
