<svg width="830" height="141" viewBox="0 0 830 141" fill="none" xmlns="http://www.w3.org/2000/svg">
    <path d="M10.3711 59.9434H6.44238V71H4.3418V59.9434H0.439453V58.2031H10.3711V59.9434ZM15.9434 67.1943L16.3037 68.3369L18.9756 61.4902H21.3047L16.4883 72.4414C16.3828 72.6816 16.2451 72.9395 16.0752 73.2148C15.9053 73.4961 15.6943 73.7568 15.4424 73.9971C15.1963 74.2373 14.9004 74.4365 14.5547 74.5947C14.209 74.7588 13.8047 74.8408 13.3418 74.8408C13.1484 74.8408 12.9521 74.8232 12.7529 74.7881C12.5596 74.7588 12.3867 74.7236 12.2344 74.6826L12.5332 73.0479C12.5742 73.0479 12.6299 73.0479 12.7002 73.0479C12.7705 73.0537 12.8438 73.0596 12.9199 73.0654C12.9961 73.0713 13.0664 73.0742 13.1309 73.0742C13.2012 73.0801 13.2568 73.083 13.2979 73.083C13.5029 73.083 13.6846 73.0215 13.8428 72.8984C14.0068 72.7812 14.1504 72.6436 14.2734 72.4854C14.3965 72.333 14.4961 72.1807 14.5723 72.0283C14.6543 71.8818 14.7129 71.7822 14.748 71.7295L15.3721 70.5518L11.3291 61.4902H13.6494L15.9434 67.1943ZM31.3066 66.3418C31.3066 67.0332 31.2246 67.6748 31.0605 68.2666C30.8965 68.8584 30.6562 69.3711 30.3398 69.8047C30.0234 70.2324 29.6338 70.5693 29.1709 70.8154C28.7139 71.0557 28.1865 71.1758 27.5889 71.1758C27.0498 71.1758 26.5723 71.0879 26.1562 70.9121C25.7461 70.7363 25.3916 70.4844 25.0928 70.1562V74.6562H22.9922V61.4902H24.9258L25.0137 62.4482C25.3184 62.085 25.6787 61.8066 26.0947 61.6133C26.5166 61.4141 27.0059 61.3145 27.5625 61.3145C28.166 61.3145 28.6992 61.4316 29.1621 61.666C29.6309 61.9004 30.0234 62.2314 30.3398 62.6592C30.6562 63.0811 30.8965 63.5908 31.0605 64.1885C31.2246 64.7803 31.3066 65.4365 31.3066 66.1572V66.3418ZM29.2061 66.1572C29.2061 65.7295 29.1621 65.3281 29.0742 64.9531C28.9863 64.5723 28.8516 64.2412 28.6699 63.96C28.4883 63.6729 28.2568 63.4473 27.9756 63.2832C27.6943 63.1191 27.3604 63.0371 26.9736 63.0371C26.5049 63.0371 26.1182 63.1367 25.8135 63.3359C25.5088 63.5352 25.2686 63.8018 25.0928 64.1357V68.3896C25.2686 68.7178 25.5059 68.9844 25.8047 69.1895C26.1094 69.3945 26.5049 69.4971 26.9912 69.4971C27.3779 69.4971 27.7119 69.4121 27.9932 69.2422C28.2744 69.0723 28.5029 68.8438 28.6787 68.5566C28.8604 68.2695 28.9922 67.9355 29.0742 67.5547C29.1621 67.1738 29.2061 66.7695 29.2061 66.3418V66.1572ZM33.4072 66.1572C33.4072 65.4717 33.5068 64.833 33.7061 64.2412C33.9111 63.6494 34.2012 63.1367 34.5762 62.7031C34.957 62.2695 35.4199 61.9297 35.9648 61.6836C36.5098 61.4375 37.1279 61.3145 37.8193 61.3145C38.5166 61.3145 39.1377 61.4375 39.6826 61.6836C40.2334 61.9297 40.6963 62.2695 41.0713 62.7031C41.4521 63.1367 41.7422 63.6494 41.9414 64.2412C42.1406 64.833 42.2402 65.4717 42.2402 66.1572V66.3418C42.2402 67.0332 42.1406 67.6748 41.9414 68.2666C41.7422 68.8584 41.4521 69.3711 41.0713 69.8047C40.6963 70.2324 40.2363 70.5693 39.6914 70.8154C39.1465 71.0615 38.5283 71.1846 37.8369 71.1846C37.1396 71.1846 36.5156 71.0615 35.9648 70.8154C35.4199 70.5693 34.957 70.2324 34.5762 69.8047C34.2012 69.3711 33.9111 68.8584 33.7061 68.2666C33.5068 67.6748 33.4072 67.0332 33.4072 66.3418V66.1572ZM35.5078 66.3418C35.5078 66.7754 35.5518 67.1826 35.6396 67.5635C35.7334 67.9443 35.874 68.2812 36.0615 68.5742C36.2549 68.8613 36.498 69.0898 36.791 69.2598C37.084 69.4238 37.4326 69.5059 37.8369 69.5059C38.2295 69.5059 38.5693 69.4238 38.8564 69.2598C39.1494 69.0898 39.3896 68.8613 39.5771 68.5742C39.7705 68.2812 39.9111 67.9443 39.999 67.5635C40.0928 67.1826 40.1396 66.7754 40.1396 66.3418V66.1572C40.1396 65.7354 40.0928 65.334 39.999 64.9531C39.9111 64.5723 39.7705 64.2383 39.5771 63.9512C39.3896 63.6641 39.1494 63.4355 38.8564 63.2656C38.5693 63.0957 38.2236 63.0107 37.8193 63.0107C37.4209 63.0107 37.0752 63.0957 36.7822 63.2656C36.4893 63.4355 36.249 63.6641 36.0615 63.9512C35.874 64.2383 35.7334 64.5723 35.6396 64.9531C35.5518 65.334 35.5078 65.7354 35.5078 66.1572V66.3418ZM44.332 66.1748C44.332 65.4541 44.4199 64.7949 44.5957 64.1973C44.7773 63.5996 45.0352 63.0869 45.3691 62.6592C45.7031 62.2314 46.1045 61.9004 46.5732 61.666C47.0479 61.4316 47.5781 61.3145 48.1641 61.3145C48.7324 61.3145 49.2246 61.4111 49.6406 61.6045C50.0566 61.7979 50.4141 62.0762 50.7129 62.4395L50.8008 61.4902H52.708V70.7451C52.708 71.3838 52.6025 71.9492 52.3916 72.4414C52.1807 72.9395 51.8848 73.3584 51.5039 73.6982C51.1289 74.0381 50.6777 74.2959 50.1504 74.4717C49.623 74.6533 49.043 74.7441 48.4102 74.7441C48.1523 74.7441 47.8594 74.7148 47.5312 74.6562C47.209 74.6035 46.8838 74.5127 46.5557 74.3838C46.2275 74.2607 45.9141 74.0967 45.6152 73.8916C45.3164 73.6924 45.0615 73.4492 44.8506 73.1621L45.8525 71.9053C46.21 72.3271 46.5938 72.6289 47.0039 72.8105C47.4199 72.9922 47.8477 73.083 48.2871 73.083C48.6387 73.083 48.958 73.0332 49.2451 72.9336C49.5322 72.834 49.7754 72.6875 49.9746 72.4941C50.1738 72.3008 50.3262 72.0605 50.4316 71.7734C50.543 71.4922 50.5986 71.167 50.5986 70.7979V70.1562C50.2998 70.4844 49.9482 70.7363 49.5439 70.9121C49.1455 71.0879 48.6797 71.1758 48.1465 71.1758C47.5664 71.1758 47.042 71.0557 46.5732 70.8154C46.1045 70.5693 45.7031 70.2324 45.3691 69.8047C45.0352 69.377 44.7773 68.8701 44.5957 68.2842C44.4199 67.6924 44.332 67.0508 44.332 66.3594V66.1748ZM46.4414 66.3594C46.4414 66.7871 46.4854 67.1885 46.5732 67.5635C46.6611 67.9385 46.7959 68.2666 46.9775 68.5479C47.1592 68.8291 47.3906 69.0518 47.6719 69.2158C47.959 69.374 48.2959 69.4531 48.6826 69.4531C49.1689 69.4531 49.5645 69.3535 49.8691 69.1543C50.1738 68.9492 50.417 68.6768 50.5986 68.3369V64.1357C50.4111 63.8018 50.165 63.5352 49.8604 63.3359C49.5557 63.1367 49.1689 63.0371 48.7002 63.0371C48.3135 63.0371 47.9766 63.1191 47.6895 63.2832C47.4082 63.4473 47.1738 63.6729 46.9863 63.96C46.8047 64.2471 46.667 64.5811 46.5732 64.9619C46.4854 65.3428 46.4414 65.7471 46.4414 66.1748V66.3594ZM61.9453 61.3145C62.1152 61.3145 62.2852 61.3203 62.4551 61.332C62.625 61.3438 62.7861 61.3613 62.9385 61.3848C63.0967 61.4082 63.2402 61.4346 63.3691 61.4639C63.498 61.4873 63.6064 61.5166 63.6943 61.5518L63.3955 63.6172C62.751 63.4707 62.1152 63.3975 61.4883 63.3975C60.7852 63.3975 60.2168 63.5439 59.7832 63.8369C59.3555 64.1299 59.0391 64.5371 58.834 65.0586V71H56.7334V61.4902H58.7021L58.7988 62.9756C59.1855 62.46 59.6426 62.0557 60.1699 61.7627C60.7031 61.4639 61.2949 61.3145 61.9453 61.3145ZM72.29 71C72.2314 70.8828 72.1816 70.7451 72.1406 70.5869C72.1055 70.4287 72.0732 70.2588 72.0439 70.0771C71.8975 70.2295 71.7305 70.373 71.543 70.5078C71.3613 70.6367 71.1562 70.751 70.9277 70.8506C70.7051 70.9502 70.4619 71.0293 70.1982 71.0879C69.9404 71.1465 69.6621 71.1758 69.3633 71.1758C68.8594 71.1758 68.4023 71.1055 67.9922 70.9648C67.5879 70.8184 67.2393 70.6191 66.9463 70.3672C66.6592 70.1094 66.4365 69.8076 66.2783 69.4619C66.1201 69.1162 66.041 68.7412 66.041 68.3369C66.041 67.3174 66.4189 66.5381 67.1748 65.999C67.9365 65.46 69.0264 65.1904 70.4443 65.1904H71.9824V64.5664C71.9824 64.0625 71.8125 63.6641 71.4727 63.3711C71.1328 63.0723 70.6523 62.9229 70.0312 62.9229C69.75 62.9229 69.5039 62.958 69.293 63.0283C69.082 63.0928 68.9062 63.1836 68.7656 63.3008C68.625 63.418 68.5195 63.5557 68.4492 63.7139C68.3789 63.8721 68.3438 64.042 68.3438 64.2236H66.2432C66.2432 63.8545 66.3281 63.4971 66.498 63.1514C66.6738 62.7998 66.9287 62.4893 67.2627 62.2197C67.5967 61.9443 68.0039 61.7246 68.4844 61.5605C68.9707 61.3965 69.5244 61.3145 70.1455 61.3145C70.708 61.3145 71.2295 61.3848 71.71 61.5254C72.1904 61.6602 72.6064 61.8652 72.958 62.1406C73.3096 62.4102 73.585 62.75 73.7842 63.1602C73.9834 63.5645 74.083 64.0391 74.083 64.584V68.8203C74.083 69.2363 74.1123 69.6172 74.1709 69.9629C74.2354 70.3027 74.3262 70.5986 74.4434 70.8506V71H72.29ZM69.7588 69.4795C70.0283 69.4795 70.2803 69.4473 70.5146 69.3828C70.7549 69.3125 70.9688 69.2246 71.1562 69.1191C71.3496 69.0078 71.5137 68.8818 71.6484 68.7412C71.7891 68.6006 71.9004 68.457 71.9824 68.3105V66.5264H70.6465C69.791 66.5264 69.1582 66.6641 68.748 66.9395C68.3438 67.2148 68.1416 67.6074 68.1416 68.1172C68.1416 68.3105 68.1738 68.4922 68.2383 68.6621C68.3027 68.8262 68.3994 68.9697 68.5283 69.0928C68.6631 69.21 68.8301 69.3037 69.0293 69.374C69.2344 69.4443 69.4775 69.4795 69.7588 69.4795ZM85.3594 66.3418C85.3594 67.0332 85.2773 67.6748 85.1133 68.2666C84.9492 68.8584 84.709 69.3711 84.3926 69.8047C84.0762 70.2324 83.6865 70.5693 83.2236 70.8154C82.7666 71.0557 82.2393 71.1758 81.6416 71.1758C81.1025 71.1758 80.625 71.0879 80.209 70.9121C79.7988 70.7363 79.4443 70.4844 79.1455 70.1562V74.6562H77.0449V61.4902H78.9785L79.0664 62.4482C79.3711 62.085 79.7314 61.8066 80.1475 61.6133C80.5693 61.4141 81.0586 61.3145 81.6152 61.3145C82.2188 61.3145 82.752 61.4316 83.2148 61.666C83.6836 61.9004 84.0762 62.2314 84.3926 62.6592C84.709 63.0811 84.9492 63.5908 85.1133 64.1885C85.2773 64.7803 85.3594 65.4365 85.3594 66.1572V66.3418ZM83.2588 66.1572C83.2588 65.7295 83.2148 65.3281 83.127 64.9531C83.0391 64.5723 82.9043 64.2412 82.7227 63.96C82.541 63.6729 82.3096 63.4473 82.0283 63.2832C81.7471 63.1191 81.4131 63.0371 81.0264 63.0371C80.5576 63.0371 80.1709 63.1367 79.8662 63.3359C79.5615 63.5352 79.3213 63.8018 79.1455 64.1357V68.3896C79.3213 68.7178 79.5586 68.9844 79.8574 69.1895C80.1621 69.3945 80.5576 69.4971 81.0439 69.4971C81.4307 69.4971 81.7646 69.4121 82.0459 69.2422C82.3271 69.0723 82.5557 68.8438 82.7314 68.5566C82.9131 68.2695 83.0449 67.9355 83.127 67.5547C83.2148 67.1738 83.2588 66.7695 83.2588 66.3418V66.1572ZM89.9473 62.8086C90.2754 62.3398 90.6738 61.9736 91.1426 61.71C91.6172 61.4463 92.1445 61.3145 92.7246 61.3145C93.2168 61.3145 93.668 61.3877 94.0781 61.5342C94.4941 61.6807 94.8486 61.9092 95.1416 62.2197C95.4346 62.5244 95.6631 62.9199 95.8271 63.4062C95.9912 63.8867 96.0732 64.4639 96.0732 65.1377V71H93.9727V65.1201C93.9727 64.7568 93.9258 64.4463 93.832 64.1885C93.7441 63.9248 93.6152 63.708 93.4453 63.5381C93.2812 63.3682 93.0791 63.2422 92.8389 63.1602C92.5986 63.0781 92.3262 63.0371 92.0215 63.0371C91.5645 63.0371 91.1602 63.1338 90.8086 63.3271C90.457 63.5146 90.1699 63.7695 89.9473 64.0918V71H87.8467V57.5H89.9473V62.8086ZM102.428 67.1943L102.788 68.3369L105.46 61.4902H107.789L102.973 72.4414C102.867 72.6816 102.729 72.9395 102.56 73.2148C102.39 73.4961 102.179 73.7568 101.927 73.9971C101.681 74.2373 101.385 74.4365 101.039 74.5947C100.693 74.7588 100.289 74.8408 99.8262 74.8408C99.6328 74.8408 99.4365 74.8232 99.2373 74.7881C99.0439 74.7588 98.8711 74.7236 98.7188 74.6826L99.0176 73.0479C99.0586 73.0479 99.1143 73.0479 99.1846 73.0479C99.2549 73.0537 99.3281 73.0596 99.4043 73.0654C99.4805 73.0713 99.5508 73.0742 99.6152 73.0742C99.6855 73.0801 99.7412 73.083 99.7822 73.083C99.9873 73.083 100.169 73.0215 100.327 72.8984C100.491 72.7812 100.635 72.6436 100.758 72.4854C100.881 72.333 100.98 72.1807 101.057 72.0283C101.139 71.8818 101.197 71.7822 101.232 71.7295L101.856 70.5518L97.8135 61.4902H100.134L102.428 67.1943Z" fill="#272833" />
    <path opacity="0.5" d="M181.949 67.0713C181.891 67.6865 181.744 68.249 181.51 68.7588C181.275 69.2627 180.965 69.6963 180.578 70.0596C180.191 70.417 179.734 70.6953 179.207 70.8945C178.686 71.0879 178.103 71.1846 177.458 71.1846C176.679 71.1846 175.999 71.0352 175.419 70.7363C174.839 70.4316 174.355 70.0215 173.969 69.5059C173.582 68.9902 173.292 68.3867 173.099 67.6953C172.905 67.0039 172.806 66.2656 172.8 65.4805V63.7314C172.806 62.9521 172.908 62.2168 173.107 61.5254C173.307 60.8281 173.6 60.2217 173.986 59.7061C174.379 59.1846 174.865 58.7744 175.445 58.4756C176.025 58.1709 176.699 58.0186 177.467 58.0186C178.141 58.0186 178.741 58.1182 179.269 58.3174C179.796 58.5166 180.247 58.7979 180.622 59.1611C180.997 59.5244 181.296 59.9668 181.519 60.4883C181.741 61.0098 181.885 61.5898 181.949 62.2285H179.84C179.805 61.8535 179.731 61.5137 179.62 61.209C179.515 60.8984 179.368 60.6348 179.181 60.418C178.993 60.1953 178.756 60.0254 178.469 59.9082C178.188 59.791 177.854 59.7324 177.467 59.7324C176.992 59.7324 176.594 59.8408 176.271 60.0576C175.949 60.2744 175.688 60.5674 175.489 60.9365C175.29 61.2998 175.146 61.7217 175.059 62.2021C174.977 62.6826 174.936 63.1865 174.936 63.7139V65.4805C174.936 66.0312 174.977 66.5498 175.059 67.0361C175.146 67.5166 175.287 67.9385 175.48 68.3018C175.674 68.665 175.932 68.9521 176.254 69.1631C176.576 69.374 176.978 69.4795 177.458 69.4795C178.196 69.4795 178.759 69.2715 179.146 68.8555C179.532 68.4336 179.761 67.8389 179.831 67.0713H181.949ZM183.786 66.1572C183.786 65.4717 183.886 64.833 184.085 64.2412C184.29 63.6494 184.58 63.1367 184.955 62.7031C185.336 62.2695 185.799 61.9297 186.344 61.6836C186.889 61.4375 187.507 61.3145 188.198 61.3145C188.896 61.3145 189.517 61.4375 190.062 61.6836C190.612 61.9297 191.075 62.2695 191.45 62.7031C191.831 63.1367 192.121 63.6494 192.32 64.2412C192.52 64.833 192.619 65.4717 192.619 66.1572V66.3418C192.619 67.0332 192.52 67.6748 192.32 68.2666C192.121 68.8584 191.831 69.3711 191.45 69.8047C191.075 70.2324 190.615 70.5693 190.07 70.8154C189.525 71.0615 188.907 71.1846 188.216 71.1846C187.519 71.1846 186.895 71.0615 186.344 70.8154C185.799 70.5693 185.336 70.2324 184.955 69.8047C184.58 69.3711 184.29 68.8584 184.085 68.2666C183.886 67.6748 183.786 67.0332 183.786 66.3418V66.1572ZM185.887 66.3418C185.887 66.7754 185.931 67.1826 186.019 67.5635C186.112 67.9443 186.253 68.2812 186.44 68.5742C186.634 68.8613 186.877 69.0898 187.17 69.2598C187.463 69.4238 187.812 69.5059 188.216 69.5059C188.608 69.5059 188.948 69.4238 189.235 69.2598C189.528 69.0898 189.769 68.8613 189.956 68.5742C190.149 68.2812 190.29 67.9443 190.378 67.5635C190.472 67.1826 190.519 66.7754 190.519 66.3418V66.1572C190.519 65.7354 190.472 65.334 190.378 64.9531C190.29 64.5723 190.149 64.2383 189.956 63.9512C189.769 63.6641 189.528 63.4355 189.235 63.2656C188.948 63.0957 188.603 63.0107 188.198 63.0107C187.8 63.0107 187.454 63.0957 187.161 63.2656C186.868 63.4355 186.628 63.6641 186.44 63.9512C186.253 64.2383 186.112 64.5723 186.019 64.9531C185.931 65.334 185.887 65.7354 185.887 66.1572V66.3418ZM195.37 57.5H200.512V69.2598H203.412V71H195.37V69.2598H198.394V59.249H195.37V57.5ZM205.407 66.1572C205.407 65.4717 205.507 64.833 205.706 64.2412C205.911 63.6494 206.201 63.1367 206.576 62.7031C206.957 62.2695 207.42 61.9297 207.965 61.6836C208.51 61.4375 209.128 61.3145 209.819 61.3145C210.517 61.3145 211.138 61.4375 211.683 61.6836C212.233 61.9297 212.696 62.2695 213.071 62.7031C213.452 63.1367 213.742 63.6494 213.941 64.2412C214.141 64.833 214.24 65.4717 214.24 66.1572V66.3418C214.24 67.0332 214.141 67.6748 213.941 68.2666C213.742 68.8584 213.452 69.3711 213.071 69.8047C212.696 70.2324 212.236 70.5693 211.691 70.8154C211.146 71.0615 210.528 71.1846 209.837 71.1846C209.14 71.1846 208.516 71.0615 207.965 70.8154C207.42 70.5693 206.957 70.2324 206.576 69.8047C206.201 69.3711 205.911 68.8584 205.706 68.2666C205.507 67.6748 205.407 67.0332 205.407 66.3418V66.1572ZM207.508 66.3418C207.508 66.7754 207.552 67.1826 207.64 67.5635C207.733 67.9443 207.874 68.2812 208.062 68.5742C208.255 68.8613 208.498 69.0898 208.791 69.2598C209.084 69.4238 209.433 69.5059 209.837 69.5059C210.229 69.5059 210.569 69.4238 210.856 69.2598C211.149 69.0898 211.39 68.8613 211.577 68.5742C211.771 68.2812 211.911 67.9443 211.999 67.5635C212.093 67.1826 212.14 66.7754 212.14 66.3418V66.1572C212.14 65.7354 212.093 65.334 211.999 64.9531C211.911 64.5723 211.771 64.2383 211.577 63.9512C211.39 63.6641 211.149 63.4355 210.856 63.2656C210.569 63.0957 210.224 63.0107 209.819 63.0107C209.421 63.0107 209.075 63.0957 208.782 63.2656C208.489 63.4355 208.249 63.6641 208.062 63.9512C207.874 64.2383 207.733 64.5723 207.64 64.9531C207.552 65.334 207.508 65.7354 207.508 66.1572V66.3418ZM223.135 61.3145C223.305 61.3145 223.475 61.3203 223.645 61.332C223.814 61.3438 223.976 61.3613 224.128 61.3848C224.286 61.4082 224.43 61.4346 224.559 61.4639C224.688 61.4873 224.796 61.5166 224.884 61.5518L224.585 63.6172C223.94 63.4707 223.305 63.3975 222.678 63.3975C221.975 63.3975 221.406 63.5439 220.973 63.8369C220.545 64.1299 220.229 64.5371 220.023 65.0586V71H217.923V61.4902H219.892L219.988 62.9756C220.375 62.46 220.832 62.0557 221.359 61.7627C221.893 61.4639 222.484 61.3145 223.135 61.3145ZM233.611 68.4248C233.611 68.2666 233.579 68.123 233.515 67.9941C233.45 67.8594 233.333 67.7393 233.163 67.6338C232.999 67.5225 232.771 67.4199 232.478 67.3262C232.19 67.2324 231.821 67.1416 231.37 67.0537C230.808 66.9365 230.298 66.7959 229.841 66.6318C229.39 66.4678 229 66.2715 228.672 66.043C228.35 65.8145 228.101 65.5508 227.925 65.252C227.749 64.9473 227.661 64.5957 227.661 64.1973C227.661 63.8105 227.752 63.4443 227.934 63.0986C228.115 62.7471 228.373 62.4395 228.707 62.1758C229.047 61.9121 229.457 61.7041 229.938 61.5518C230.424 61.3936 230.966 61.3145 231.563 61.3145C232.196 61.3145 232.762 61.3936 233.26 61.5518C233.764 61.71 234.188 61.9268 234.534 62.2021C234.88 62.4717 235.144 62.791 235.325 63.1602C235.513 63.5293 235.606 63.9248 235.606 64.3467H233.506C233.506 64.1592 233.465 63.9805 233.383 63.8105C233.301 63.6348 233.178 63.4795 233.014 63.3447C232.85 63.21 232.645 63.1045 232.398 63.0283C232.158 62.9463 231.88 62.9053 231.563 62.9053C231.247 62.9053 230.972 62.9404 230.737 63.0107C230.509 63.0752 230.318 63.1631 230.166 63.2744C230.014 63.3799 229.899 63.5059 229.823 63.6523C229.753 63.7988 229.718 63.9512 229.718 64.1094C229.718 64.2676 229.744 64.4111 229.797 64.54C229.855 64.6689 229.961 64.7861 230.113 64.8916C230.266 64.9971 230.477 65.0938 230.746 65.1816C231.016 65.2637 231.364 65.3428 231.792 65.4189C232.39 65.5244 232.926 65.6562 233.4 65.8145C233.881 65.9727 234.288 66.166 234.622 66.3945C234.962 66.623 235.223 66.8955 235.404 67.2119C235.586 67.5225 235.677 67.8887 235.677 68.3105C235.677 68.7324 235.58 69.1191 235.387 69.4707C235.193 69.8223 234.918 70.127 234.561 70.3848C234.203 70.6367 233.772 70.833 233.269 70.9736C232.771 71.1143 232.211 71.1846 231.59 71.1846C230.898 71.1846 230.289 71.0938 229.762 70.9121C229.234 70.7246 228.792 70.4814 228.435 70.1826C228.077 69.8838 227.805 69.5439 227.617 69.1631C227.436 68.7822 227.345 68.3955 227.345 68.0029H229.384C229.401 68.2959 229.478 68.5449 229.612 68.75C229.747 68.9551 229.92 69.1221 230.131 69.251C230.342 69.374 230.576 69.4648 230.834 69.5234C231.092 69.5762 231.353 69.6025 231.616 69.6025C232.267 69.6025 232.762 69.4941 233.102 69.2773C233.441 69.0547 233.611 68.7705 233.611 68.4248Z" fill="#272833" />
    <path opacity="0.5" d="M352.807 65.2607H347.542V69.2773H353.703V71H345.424V58.2031H353.642V59.9434H347.542V63.5557H352.807V65.2607ZM356.56 57.5H361.701V69.2598H364.602V71H356.56V69.2598H359.583V59.249H356.56V57.5ZM371.413 71.1758C370.71 71.1758 370.068 71.0586 369.488 70.8242C368.908 70.5898 368.41 70.2676 367.994 69.8574C367.584 69.4473 367.265 68.9639 367.036 68.4072C366.808 67.8447 366.693 67.2383 366.693 66.5879V66.2275C366.693 65.4717 366.813 64.792 367.054 64.1885C367.3 63.585 367.625 63.0693 368.029 62.6416C368.439 62.2139 368.914 61.8857 369.453 61.6572C369.998 61.4287 370.569 61.3145 371.167 61.3145C371.858 61.3145 372.468 61.4316 372.995 61.666C373.522 61.8945 373.962 62.2197 374.313 62.6416C374.671 63.0576 374.94 63.5527 375.122 64.127C375.304 64.7012 375.395 65.3311 375.395 66.0166V66.9043H368.803C368.838 67.2734 368.929 67.6162 369.075 67.9326C369.222 68.249 369.412 68.5244 369.646 68.7588C369.887 68.9873 370.165 69.1689 370.481 69.3037C370.804 69.4326 371.155 69.4971 371.536 69.4971C372.069 69.4971 372.559 69.3916 373.004 69.1807C373.455 68.9697 373.821 68.6797 374.103 68.3105L375.245 69.3828C375.093 69.6113 374.896 69.834 374.656 70.0508C374.416 70.2617 374.135 70.4521 373.812 70.6221C373.49 70.7861 373.127 70.918 372.723 71.0176C372.324 71.123 371.888 71.1758 371.413 71.1758ZM371.158 63.0107C370.865 63.0107 370.593 63.0635 370.341 63.1689C370.089 63.2744 369.863 63.4297 369.664 63.6348C369.465 63.834 369.295 64.0801 369.154 64.373C369.02 64.6602 368.923 64.9883 368.864 65.3574H373.32V65.1992C373.303 64.918 373.247 64.6484 373.153 64.3906C373.065 64.127 372.934 63.8926 372.758 63.6875C372.582 63.4824 372.359 63.3184 372.09 63.1953C371.826 63.0723 371.516 63.0107 371.158 63.0107ZM379.007 61.4902L379.06 62.4922C379.247 62.123 379.499 61.8359 379.815 61.6309C380.132 61.4199 380.513 61.3145 380.958 61.3145C381.362 61.3145 381.696 61.3965 381.96 61.5605C382.229 61.7188 382.432 61.9678 382.566 62.3076C382.754 62.0029 382.994 61.7627 383.287 61.5869C383.58 61.4053 383.935 61.3145 384.351 61.3145C384.661 61.3145 384.945 61.3672 385.203 61.4727C385.467 61.5723 385.689 61.7334 385.871 61.9561C386.059 62.1787 386.202 62.4629 386.302 62.8086C386.407 63.1543 386.46 63.5703 386.46 64.0566V71H384.509V64.0391C384.509 63.6582 384.427 63.3975 384.263 63.2568C384.104 63.1104 383.899 63.0371 383.647 63.0371C383.407 63.0371 383.217 63.0957 383.076 63.2129C382.936 63.3242 382.833 63.4736 382.769 63.6611V71H380.861V64.0391C380.861 63.6699 380.785 63.4121 380.633 63.2656C380.486 63.1133 380.284 63.0371 380.026 63.0371C379.78 63.0371 379.587 63.0898 379.446 63.1953C379.306 63.3008 379.197 63.4443 379.121 63.626V71H377.17V61.4902H379.007ZM393.034 71.1758C392.331 71.1758 391.689 71.0586 391.109 70.8242C390.529 70.5898 390.031 70.2676 389.615 69.8574C389.205 69.4473 388.886 68.9639 388.657 68.4072C388.429 67.8447 388.314 67.2383 388.314 66.5879V66.2275C388.314 65.4717 388.435 64.792 388.675 64.1885C388.921 63.585 389.246 63.0693 389.65 62.6416C390.061 62.2139 390.535 61.8857 391.074 61.6572C391.619 61.4287 392.19 61.3145 392.788 61.3145C393.479 61.3145 394.089 61.4316 394.616 61.666C395.144 61.8945 395.583 62.2197 395.935 62.6416C396.292 63.0576 396.562 63.5527 396.743 64.127C396.925 64.7012 397.016 65.3311 397.016 66.0166V66.9043H390.424C390.459 67.2734 390.55 67.6162 390.696 67.9326C390.843 68.249 391.033 68.5244 391.268 68.7588C391.508 68.9873 391.786 69.1689 392.103 69.3037C392.425 69.4326 392.776 69.4971 393.157 69.4971C393.69 69.4971 394.18 69.3916 394.625 69.1807C395.076 68.9697 395.442 68.6797 395.724 68.3105L396.866 69.3828C396.714 69.6113 396.518 69.834 396.277 70.0508C396.037 70.2617 395.756 70.4521 395.434 70.6221C395.111 70.7861 394.748 70.918 394.344 71.0176C393.945 71.123 393.509 71.1758 393.034 71.1758ZM392.779 63.0107C392.486 63.0107 392.214 63.0635 391.962 63.1689C391.71 63.2744 391.484 63.4297 391.285 63.6348C391.086 63.834 390.916 64.0801 390.775 64.373C390.641 64.6602 390.544 64.9883 390.485 65.3574H394.941V65.1992C394.924 64.918 394.868 64.6484 394.774 64.3906C394.687 64.127 394.555 63.8926 394.379 63.6875C394.203 63.4824 393.98 63.3184 393.711 63.1953C393.447 63.0723 393.137 63.0107 392.779 63.0107ZM401.313 61.4902L401.445 62.8086C401.791 62.334 402.207 61.9678 402.693 61.71C403.186 61.4463 403.73 61.3145 404.328 61.3145C404.814 61.3145 405.257 61.3848 405.655 61.5254C406.06 61.666 406.405 61.8857 406.692 62.1846C406.985 62.4834 407.211 62.8701 407.369 63.3447C407.533 63.8193 407.615 64.3906 407.615 65.0586V71H405.515V65.0938C405.515 64.7012 405.468 64.373 405.374 64.1094C405.286 63.8457 405.157 63.6348 404.987 63.4766C404.823 63.3184 404.621 63.207 404.381 63.1426C404.141 63.0723 403.868 63.0371 403.563 63.0371C403.101 63.0371 402.696 63.1396 402.351 63.3447C402.011 63.5498 401.735 63.8281 401.524 64.1797V71H399.415V61.4902H401.313ZM414.436 59.1875V61.4902H418.03V63.0547H414.436V67.6162C414.436 67.9736 414.477 68.2695 414.559 68.5039C414.646 68.7383 414.767 68.9258 414.919 69.0664C415.071 69.207 415.25 69.3066 415.455 69.3652C415.66 69.418 415.886 69.4443 416.132 69.4443C416.313 69.4443 416.501 69.4355 416.694 69.418C416.894 69.3945 417.084 69.3711 417.266 69.3477C417.453 69.3184 417.623 69.2891 417.775 69.2598C417.934 69.2246 418.065 69.1924 418.171 69.1631L418.408 70.6133C418.256 70.7012 418.071 70.7832 417.854 70.8594C417.644 70.9297 417.412 70.9883 417.16 71.0352C416.908 71.082 416.645 71.1172 416.369 71.1406C416.1 71.1699 415.833 71.1846 415.569 71.1846C415.095 71.1846 414.658 71.1201 414.26 70.9912C413.867 70.8564 413.527 70.6514 413.24 70.376C412.959 70.0947 412.736 69.7373 412.572 69.3037C412.414 68.8643 412.335 68.3398 412.335 67.7305V63.0547H410.015V61.4902H412.335V59.1875H414.436ZM427.232 68.4248C427.232 68.2666 427.2 68.123 427.136 67.9941C427.071 67.8594 426.954 67.7393 426.784 67.6338C426.62 67.5225 426.392 67.4199 426.099 67.3262C425.812 67.2324 425.442 67.1416 424.991 67.0537C424.429 66.9365 423.919 66.7959 423.462 66.6318C423.011 66.4678 422.621 66.2715 422.293 66.043C421.971 65.8145 421.722 65.5508 421.546 65.252C421.37 64.9473 421.282 64.5957 421.282 64.1973C421.282 63.8105 421.373 63.4443 421.555 63.0986C421.736 62.7471 421.994 62.4395 422.328 62.1758C422.668 61.9121 423.078 61.7041 423.559 61.5518C424.045 61.3936 424.587 61.3145 425.185 61.3145C425.817 61.3145 426.383 61.3936 426.881 61.5518C427.385 61.71 427.81 61.9268 428.155 62.2021C428.501 62.4717 428.765 62.791 428.946 63.1602C429.134 63.5293 429.228 63.9248 429.228 64.3467H427.127C427.127 64.1592 427.086 63.9805 427.004 63.8105C426.922 63.6348 426.799 63.4795 426.635 63.3447C426.471 63.21 426.266 63.1045 426.02 63.0283C425.779 62.9463 425.501 62.9053 425.185 62.9053C424.868 62.9053 424.593 62.9404 424.358 63.0107C424.13 63.0752 423.939 63.1631 423.787 63.2744C423.635 63.3799 423.521 63.5059 423.444 63.6523C423.374 63.7988 423.339 63.9512 423.339 64.1094C423.339 64.2676 423.365 64.4111 423.418 64.54C423.477 64.6689 423.582 64.7861 423.734 64.8916C423.887 64.9971 424.098 65.0938 424.367 65.1816C424.637 65.2637 424.985 65.3428 425.413 65.4189C426.011 65.5244 426.547 65.6562 427.021 65.8145C427.502 65.9727 427.909 66.166 428.243 66.3945C428.583 66.623 428.844 66.8955 429.025 67.2119C429.207 67.5225 429.298 67.8887 429.298 68.3105C429.298 68.7324 429.201 69.1191 429.008 69.4707C428.814 69.8223 428.539 70.127 428.182 70.3848C427.824 70.6367 427.394 70.833 426.89 70.9736C426.392 71.1143 425.832 71.1846 425.211 71.1846C424.52 71.1846 423.91 71.0938 423.383 70.9121C422.855 70.7246 422.413 70.4814 422.056 70.1826C421.698 69.8838 421.426 69.5439 421.238 69.1631C421.057 68.7822 420.966 68.3955 420.966 68.0029H423.005C423.022 68.2959 423.099 68.5449 423.233 68.75C423.368 68.9551 423.541 69.1221 423.752 69.251C423.963 69.374 424.197 69.4648 424.455 69.5234C424.713 69.5762 424.974 69.6025 425.237 69.6025C425.888 69.6025 426.383 69.4941 426.723 69.2773C427.062 69.0547 427.232 68.7705 427.232 68.4248Z" fill="#272833" />
    <path opacity="0.5" d="M519.621 69.2773H525.721V71H517.512V58.2031H519.621V69.2773ZM534.237 71C534.179 70.8828 534.129 70.7451 534.088 70.5869C534.053 70.4287 534.021 70.2588 533.991 70.0771C533.845 70.2295 533.678 70.373 533.49 70.5078C533.309 70.6367 533.104 70.751 532.875 70.8506C532.652 70.9502 532.409 71.0293 532.146 71.0879C531.888 71.1465 531.609 71.1758 531.311 71.1758C530.807 71.1758 530.35 71.1055 529.939 70.9648C529.535 70.8184 529.187 70.6191 528.894 70.3672C528.606 70.1094 528.384 69.8076 528.226 69.4619C528.067 69.1162 527.988 68.7412 527.988 68.3369C527.988 67.3174 528.366 66.5381 529.122 65.999C529.884 65.46 530.974 65.1904 532.392 65.1904H533.93V64.5664C533.93 64.0625 533.76 63.6641 533.42 63.3711C533.08 63.0723 532.6 62.9229 531.979 62.9229C531.697 62.9229 531.451 62.958 531.24 63.0283C531.029 63.0928 530.854 63.1836 530.713 63.3008C530.572 63.418 530.467 63.5557 530.396 63.7139C530.326 63.8721 530.291 64.042 530.291 64.2236H528.19C528.19 63.8545 528.275 63.4971 528.445 63.1514C528.621 62.7998 528.876 62.4893 529.21 62.2197C529.544 61.9443 529.951 61.7246 530.432 61.5605C530.918 61.3965 531.472 61.3145 532.093 61.3145C532.655 61.3145 533.177 61.3848 533.657 61.5254C534.138 61.6602 534.554 61.8652 534.905 62.1406C535.257 62.4102 535.532 62.75 535.731 63.1602C535.931 63.5645 536.03 64.0391 536.03 64.584V68.8203C536.03 69.2363 536.06 69.6172 536.118 69.9629C536.183 70.3027 536.273 70.5986 536.391 70.8506V71H534.237ZM531.706 69.4795C531.976 69.4795 532.228 69.4473 532.462 69.3828C532.702 69.3125 532.916 69.2246 533.104 69.1191C533.297 69.0078 533.461 68.8818 533.596 68.7412C533.736 68.6006 533.848 68.457 533.93 68.3105V66.5264H532.594C531.738 66.5264 531.105 66.6641 530.695 66.9395C530.291 67.2148 530.089 67.6074 530.089 68.1172C530.089 68.3105 530.121 68.4922 530.186 68.6621C530.25 68.8262 530.347 68.9697 530.476 69.0928C530.61 69.21 530.777 69.3037 530.977 69.374C531.182 69.4443 531.425 69.4795 531.706 69.4795ZM542.754 67.1943L543.114 68.3369L545.786 61.4902H548.115L543.299 72.4414C543.193 72.6816 543.056 72.9395 542.886 73.2148C542.716 73.4961 542.505 73.7568 542.253 73.9971C542.007 74.2373 541.711 74.4365 541.365 74.5947C541.02 74.7588 540.615 74.8408 540.152 74.8408C539.959 74.8408 539.763 74.8232 539.563 74.7881C539.37 74.7588 539.197 74.7236 539.045 74.6826L539.344 73.0479C539.385 73.0479 539.44 73.0479 539.511 73.0479C539.581 73.0537 539.654 73.0596 539.73 73.0654C539.807 73.0713 539.877 73.0742 539.941 73.0742C540.012 73.0801 540.067 73.083 540.108 73.083C540.313 73.083 540.495 73.0215 540.653 72.8984C540.817 72.7812 540.961 72.6436 541.084 72.4854C541.207 72.333 541.307 72.1807 541.383 72.0283C541.465 71.8818 541.523 71.7822 541.559 71.7295L542.183 70.5518L538.14 61.4902H540.46L542.754 67.1943ZM549.407 66.1572C549.407 65.4717 549.507 64.833 549.706 64.2412C549.911 63.6494 550.201 63.1367 550.576 62.7031C550.957 62.2695 551.42 61.9297 551.965 61.6836C552.51 61.4375 553.128 61.3145 553.819 61.3145C554.517 61.3145 555.138 61.4375 555.683 61.6836C556.233 61.9297 556.696 62.2695 557.071 62.7031C557.452 63.1367 557.742 63.6494 557.941 64.2412C558.141 64.833 558.24 65.4717 558.24 66.1572V66.3418C558.24 67.0332 558.141 67.6748 557.941 68.2666C557.742 68.8584 557.452 69.3711 557.071 69.8047C556.696 70.2324 556.236 70.5693 555.691 70.8154C555.146 71.0615 554.528 71.1846 553.837 71.1846C553.14 71.1846 552.516 71.0615 551.965 70.8154C551.42 70.5693 550.957 70.2324 550.576 69.8047C550.201 69.3711 549.911 68.8584 549.706 68.2666C549.507 67.6748 549.407 67.0332 549.407 66.3418V66.1572ZM551.508 66.3418C551.508 66.7754 551.552 67.1826 551.64 67.5635C551.733 67.9443 551.874 68.2812 552.062 68.5742C552.255 68.8613 552.498 69.0898 552.791 69.2598C553.084 69.4238 553.433 69.5059 553.837 69.5059C554.229 69.5059 554.569 69.4238 554.856 69.2598C555.149 69.0898 555.39 68.8613 555.577 68.5742C555.771 68.2812 555.911 67.9443 555.999 67.5635C556.093 67.1826 556.14 66.7754 556.14 66.3418V66.1572C556.14 65.7354 556.093 65.334 555.999 64.9531C555.911 64.5723 555.771 64.2383 555.577 63.9512C555.39 63.6641 555.149 63.4355 554.856 63.2656C554.569 63.0957 554.224 63.0107 553.819 63.0107C553.421 63.0107 553.075 63.0957 552.782 63.2656C552.489 63.4355 552.249 63.6641 552.062 63.9512C551.874 64.2383 551.733 64.5723 551.64 64.9531C551.552 65.334 551.508 65.7354 551.508 66.1572V66.3418ZM566.704 69.6992C566.382 70.168 565.989 70.5342 565.526 70.7979C565.069 71.0557 564.557 71.1846 563.988 71.1846C563.496 71.1846 563.045 71.1084 562.635 70.9561C562.23 70.8037 561.882 70.5635 561.589 70.2354C561.302 69.9014 561.076 69.4795 560.912 68.9697C560.754 68.4541 560.675 67.8359 560.675 67.1152V61.4902H562.775V67.1328C562.775 67.5898 562.808 67.9678 562.872 68.2666C562.942 68.5654 563.048 68.8027 563.188 68.9785C563.329 69.1543 563.505 69.2803 563.716 69.3564C563.927 69.4268 564.179 69.4619 564.472 69.4619C565.034 69.4619 565.488 69.3535 565.834 69.1367C566.18 68.9141 566.44 68.6152 566.616 68.2402V61.4902H568.726V71H566.827L566.704 69.6992ZM575.625 59.1875V61.4902H579.22V63.0547H575.625V67.6162C575.625 67.9736 575.666 68.2695 575.748 68.5039C575.836 68.7383 575.956 68.9258 576.108 69.0664C576.261 69.207 576.439 69.3066 576.645 69.3652C576.85 69.418 577.075 69.4443 577.321 69.4443C577.503 69.4443 577.69 69.4355 577.884 69.418C578.083 69.3945 578.273 69.3711 578.455 69.3477C578.643 69.3184 578.812 69.2891 578.965 69.2598C579.123 69.2246 579.255 69.1924 579.36 69.1631L579.598 70.6133C579.445 70.7012 579.261 70.7832 579.044 70.8594C578.833 70.9297 578.602 70.9883 578.35 71.0352C578.098 71.082 577.834 71.1172 577.559 71.1406C577.289 71.1699 577.022 71.1846 576.759 71.1846C576.284 71.1846 575.848 71.1201 575.449 70.9912C575.057 70.8564 574.717 70.6514 574.43 70.376C574.148 70.0947 573.926 69.7373 573.762 69.3037C573.604 68.8643 573.524 68.3398 573.524 67.7305V63.0547H571.204V61.4902H573.524V59.1875H575.625Z" fill="#272833" />
    <path opacity="0.5" d="M696.974 65.5508H691.604V71H689.477V58.2031H697.765V59.9434H691.604V63.8193H696.974V65.5508ZM700.63 61.4902H705.701V69.2598H708.522V71H700.63V69.2598H703.583V63.2393H700.63V61.4902ZM703.407 59.0293C703.407 58.7012 703.513 58.4316 703.724 58.2207C703.935 58.0039 704.23 57.8955 704.611 57.8955C704.998 57.8955 705.297 58.0039 705.508 58.2207C705.725 58.4316 705.833 58.7012 705.833 59.0293C705.833 59.3574 705.725 59.6299 705.508 59.8467C705.297 60.0576 704.998 60.1631 704.611 60.1631C704.23 60.1631 703.935 60.0576 703.724 59.8467C703.513 59.6299 703.407 59.3574 703.407 59.0293ZM712.882 61.4902L713.014 62.8086C713.359 62.334 713.775 61.9678 714.262 61.71C714.754 61.4463 715.299 61.3145 715.896 61.3145C716.383 61.3145 716.825 61.3848 717.224 61.5254C717.628 61.666 717.974 61.8857 718.261 62.1846C718.554 62.4834 718.779 62.8701 718.938 63.3447C719.102 63.8193 719.184 64.3906 719.184 65.0586V71H717.083V65.0938C717.083 64.7012 717.036 64.373 716.942 64.1094C716.854 63.8457 716.726 63.6348 716.556 63.4766C716.392 63.3184 716.189 63.207 715.949 63.1426C715.709 63.0723 715.437 63.0371 715.132 63.0371C714.669 63.0371 714.265 63.1396 713.919 63.3447C713.579 63.5498 713.304 63.8281 713.093 64.1797V71H710.983V61.4902H712.882ZM727.858 71C727.8 70.8828 727.75 70.7451 727.709 70.5869C727.674 70.4287 727.642 70.2588 727.612 70.0771C727.466 70.2295 727.299 70.373 727.111 70.5078C726.93 70.6367 726.725 70.751 726.496 70.8506C726.273 70.9502 726.03 71.0293 725.767 71.0879C725.509 71.1465 725.23 71.1758 724.932 71.1758C724.428 71.1758 723.971 71.1055 723.561 70.9648C723.156 70.8184 722.808 70.6191 722.515 70.3672C722.228 70.1094 722.005 69.8076 721.847 69.4619C721.688 69.1162 721.609 68.7412 721.609 68.3369C721.609 67.3174 721.987 66.5381 722.743 65.999C723.505 65.46 724.595 65.1904 726.013 65.1904H727.551V64.5664C727.551 64.0625 727.381 63.6641 727.041 63.3711C726.701 63.0723 726.221 62.9229 725.6 62.9229C725.318 62.9229 725.072 62.958 724.861 63.0283C724.65 63.0928 724.475 63.1836 724.334 63.3008C724.193 63.418 724.088 63.5557 724.018 63.7139C723.947 63.8721 723.912 64.042 723.912 64.2236H721.812C721.812 63.8545 721.896 63.4971 722.066 63.1514C722.242 62.7998 722.497 62.4893 722.831 62.2197C723.165 61.9443 723.572 61.7246 724.053 61.5605C724.539 61.3965 725.093 61.3145 725.714 61.3145C726.276 61.3145 726.798 61.3848 727.278 61.5254C727.759 61.6602 728.175 61.8652 728.526 62.1406C728.878 62.4102 729.153 62.75 729.353 63.1602C729.552 63.5645 729.651 64.0391 729.651 64.584V68.8203C729.651 69.2363 729.681 69.6172 729.739 69.9629C729.804 70.3027 729.895 70.5986 730.012 70.8506V71H727.858ZM725.327 69.4795C725.597 69.4795 725.849 69.4473 726.083 69.3828C726.323 69.3125 726.537 69.2246 726.725 69.1191C726.918 69.0078 727.082 68.8818 727.217 68.7412C727.357 68.6006 727.469 68.457 727.551 68.3105V66.5264H726.215C725.359 66.5264 724.727 66.6641 724.316 66.9395C723.912 67.2148 723.71 67.6074 723.71 68.1172C723.71 68.3105 723.742 68.4922 723.807 68.6621C723.871 68.8262 723.968 68.9697 724.097 69.0928C724.231 69.21 724.398 69.3037 724.598 69.374C724.803 69.4443 725.046 69.4795 725.327 69.4795ZM732.991 57.5H738.133V69.2598H741.033V71H732.991V69.2598H736.015V59.249H732.991V57.5ZM760.817 67.7041C760.817 67.3994 760.753 67.1328 760.624 66.9043C760.501 66.6699 760.322 66.4648 760.088 66.2891C759.859 66.1133 759.584 65.9609 759.262 65.832C758.945 65.6973 758.6 65.5742 758.225 65.4629C757.721 65.3164 757.223 65.1348 756.73 64.918C756.244 64.7012 755.808 64.4375 755.421 64.127C755.04 63.8105 754.729 63.4443 754.489 63.0283C754.255 62.6064 754.138 62.1201 754.138 61.5693C754.138 61.0186 754.255 60.5264 754.489 60.0928C754.729 59.6533 755.049 59.2812 755.447 58.9766C755.846 58.6719 756.309 58.4375 756.836 58.2734C757.363 58.1094 757.914 58.0273 758.488 58.0273C759.104 58.0273 759.678 58.124 760.211 58.3174C760.75 58.5049 761.219 58.7715 761.617 59.1172C762.021 59.457 762.341 59.8672 762.575 60.3477C762.81 60.8223 762.93 61.3496 762.936 61.9297H760.826C760.797 61.6074 760.727 61.3145 760.615 61.0508C760.51 60.7812 760.357 60.5498 760.158 60.3564C759.965 60.1631 759.728 60.0137 759.446 59.9082C759.165 59.8027 758.84 59.75 758.471 59.75C758.154 59.75 757.861 59.791 757.592 59.873C757.322 59.9551 757.088 60.0752 756.889 60.2334C756.695 60.3916 756.543 60.582 756.432 60.8047C756.32 61.0273 756.265 61.2793 756.265 61.5605C756.265 61.8594 756.341 62.1201 756.493 62.3428C756.646 62.5596 756.845 62.75 757.091 62.9141C757.337 63.0781 757.618 63.2217 757.935 63.3447C758.257 63.4619 758.591 63.5703 758.937 63.6699C759.47 63.8281 759.979 64.0244 760.466 64.2588C760.952 64.4873 761.38 64.7656 761.749 65.0938C762.118 65.416 762.411 65.791 762.628 66.2188C762.845 66.6465 762.953 67.1357 762.953 67.6865C762.953 68.2549 762.833 68.7559 762.593 69.1895C762.353 69.623 762.03 69.9863 761.626 70.2793C761.222 70.5723 760.753 70.7949 760.22 70.9473C759.687 71.0938 759.13 71.167 758.55 71.167C758.157 71.167 757.768 71.1289 757.381 71.0527C756.994 70.9766 756.622 70.8623 756.265 70.71C755.913 70.5576 755.585 70.3701 755.28 70.1475C754.976 69.9189 754.709 69.6582 754.48 69.3652C754.258 69.0664 754.082 68.7354 753.953 68.3721C753.824 68.0029 753.757 67.5986 753.751 67.1592H755.869C755.898 67.5459 755.983 67.8828 756.124 68.1699C756.265 68.457 756.452 68.6973 756.687 68.8906C756.921 69.0781 757.193 69.2217 757.504 69.3213C757.82 69.415 758.169 69.4619 758.55 69.4619C758.866 69.4619 759.162 69.4238 759.438 69.3477C759.713 69.2715 759.953 69.1602 760.158 69.0137C760.363 68.8613 760.524 68.6768 760.642 68.46C760.759 68.2373 760.817 67.9854 760.817 67.7041ZM769.246 59.1875V61.4902H772.841V63.0547H769.246V67.6162C769.246 67.9736 769.287 68.2695 769.369 68.5039C769.457 68.7383 769.577 68.9258 769.729 69.0664C769.882 69.207 770.061 69.3066 770.266 69.3652C770.471 69.418 770.696 69.4443 770.942 69.4443C771.124 69.4443 771.312 69.4355 771.505 69.418C771.704 69.3945 771.895 69.3711 772.076 69.3477C772.264 69.3184 772.434 69.2891 772.586 69.2598C772.744 69.2246 772.876 69.1924 772.981 69.1631L773.219 70.6133C773.066 70.7012 772.882 70.7832 772.665 70.8594C772.454 70.9297 772.223 70.9883 771.971 71.0352C771.719 71.082 771.455 71.1172 771.18 71.1406C770.91 71.1699 770.644 71.1846 770.38 71.1846C769.905 71.1846 769.469 71.1201 769.07 70.9912C768.678 70.8564 768.338 70.6514 768.051 70.376C767.77 70.0947 767.547 69.7373 767.383 69.3037C767.225 68.8643 767.146 68.3398 767.146 67.7305V63.0547H764.825V61.4902H767.146V59.1875H769.246ZM780.276 71.1758C779.573 71.1758 778.932 71.0586 778.352 70.8242C777.771 70.5898 777.273 70.2676 776.857 69.8574C776.447 69.4473 776.128 68.9639 775.899 68.4072C775.671 67.8447 775.557 67.2383 775.557 66.5879V66.2275C775.557 65.4717 775.677 64.792 775.917 64.1885C776.163 63.585 776.488 63.0693 776.893 62.6416C777.303 62.2139 777.777 61.8857 778.316 61.6572C778.861 61.4287 779.433 61.3145 780.03 61.3145C780.722 61.3145 781.331 61.4316 781.858 61.666C782.386 61.8945 782.825 62.2197 783.177 62.6416C783.534 63.0576 783.804 63.5527 783.985 64.127C784.167 64.7012 784.258 65.3311 784.258 66.0166V66.9043H777.666C777.701 67.2734 777.792 67.6162 777.938 67.9326C778.085 68.249 778.275 68.5244 778.51 68.7588C778.75 68.9873 779.028 69.1689 779.345 69.3037C779.667 69.4326 780.019 69.4971 780.399 69.4971C780.933 69.4971 781.422 69.3916 781.867 69.1807C782.318 68.9697 782.685 68.6797 782.966 68.3105L784.108 69.3828C783.956 69.6113 783.76 69.834 783.52 70.0508C783.279 70.2617 782.998 70.4521 782.676 70.6221C782.354 70.7861 781.99 70.918 781.586 71.0176C781.188 71.123 780.751 71.1758 780.276 71.1758ZM780.021 63.0107C779.729 63.0107 779.456 63.0635 779.204 63.1689C778.952 63.2744 778.727 63.4297 778.527 63.6348C778.328 63.834 778.158 64.0801 778.018 64.373C777.883 64.6602 777.786 64.9883 777.728 65.3574H782.184V65.1992C782.166 64.918 782.11 64.6484 782.017 64.3906C781.929 64.127 781.797 63.8926 781.621 63.6875C781.445 63.4824 781.223 63.3184 780.953 63.1953C780.689 63.0723 780.379 63.0107 780.021 63.0107ZM794.98 66.3418C794.98 67.0332 794.898 67.6748 794.734 68.2666C794.57 68.8584 794.33 69.3711 794.014 69.8047C793.697 70.2324 793.308 70.5693 792.845 70.8154C792.388 71.0557 791.86 71.1758 791.263 71.1758C790.724 71.1758 790.246 71.0879 789.83 70.9121C789.42 70.7363 789.065 70.4844 788.767 70.1562V74.6562H786.666V61.4902H788.6L788.688 62.4482C788.992 62.085 789.353 61.8066 789.769 61.6133C790.19 61.4141 790.68 61.3145 791.236 61.3145C791.84 61.3145 792.373 61.4316 792.836 61.666C793.305 61.9004 793.697 62.2314 794.014 62.6592C794.33 63.0811 794.57 63.5908 794.734 64.1885C794.898 64.7803 794.98 65.4365 794.98 66.1572V66.3418ZM792.88 66.1572C792.88 65.7295 792.836 65.3281 792.748 64.9531C792.66 64.5723 792.525 64.2412 792.344 63.96C792.162 63.6729 791.931 63.4473 791.649 63.2832C791.368 63.1191 791.034 63.0371 790.647 63.0371C790.179 63.0371 789.792 63.1367 789.487 63.3359C789.183 63.5352 788.942 63.8018 788.767 64.1357V68.3896C788.942 68.7178 789.18 68.9844 789.479 69.1895C789.783 69.3945 790.179 69.4971 790.665 69.4971C791.052 69.4971 791.386 69.4121 791.667 69.2422C791.948 69.0723 792.177 68.8438 792.353 68.5566C792.534 68.2695 792.666 67.9355 792.748 67.5547C792.836 67.1738 792.88 66.7695 792.88 66.3418V66.1572ZM803.664 68.4248C803.664 68.2666 803.632 68.123 803.567 67.9941C803.503 67.8594 803.386 67.7393 803.216 67.6338C803.052 67.5225 802.823 67.4199 802.53 67.3262C802.243 67.2324 801.874 67.1416 801.423 67.0537C800.86 66.9365 800.351 66.7959 799.894 66.6318C799.442 66.4678 799.053 66.2715 798.725 66.043C798.402 65.8145 798.153 65.5508 797.978 65.252C797.802 64.9473 797.714 64.5957 797.714 64.1973C797.714 63.8105 797.805 63.4443 797.986 63.0986C798.168 62.7471 798.426 62.4395 798.76 62.1758C799.1 61.9121 799.51 61.7041 799.99 61.5518C800.477 61.3936 801.019 61.3145 801.616 61.3145C802.249 61.3145 802.814 61.3936 803.312 61.5518C803.816 61.71 804.241 61.9268 804.587 62.2021C804.933 62.4717 805.196 62.791 805.378 63.1602C805.565 63.5293 805.659 63.9248 805.659 64.3467H803.559C803.559 64.1592 803.518 63.9805 803.436 63.8105C803.354 63.6348 803.23 63.4795 803.066 63.3447C802.902 63.21 802.697 63.1045 802.451 63.0283C802.211 62.9463 801.933 62.9053 801.616 62.9053C801.3 62.9053 801.024 62.9404 800.79 63.0107C800.562 63.0752 800.371 63.1631 800.219 63.2744C800.066 63.3799 799.952 63.5059 799.876 63.6523C799.806 63.7988 799.771 63.9512 799.771 64.1094C799.771 64.2676 799.797 64.4111 799.85 64.54C799.908 64.6689 800.014 64.7861 800.166 64.8916C800.318 64.9971 800.529 65.0938 800.799 65.1816C801.068 65.2637 801.417 65.3428 801.845 65.4189C802.442 65.5244 802.979 65.6562 803.453 65.8145C803.934 65.9727 804.341 66.166 804.675 66.3945C805.015 66.623 805.275 66.8955 805.457 67.2119C805.639 67.5225 805.729 67.8887 805.729 68.3105C805.729 68.7324 805.633 69.1191 805.439 69.4707C805.246 69.8223 804.971 70.127 804.613 70.3848C804.256 70.6367 803.825 70.833 803.321 70.9736C802.823 71.1143 802.264 71.1846 801.643 71.1846C800.951 71.1846 800.342 71.0938 799.814 70.9121C799.287 70.7246 798.845 70.4814 798.487 70.1826C798.13 69.8838 797.857 69.5439 797.67 69.1631C797.488 68.7822 797.397 68.3955 797.397 68.0029H799.437C799.454 68.2959 799.53 68.5449 799.665 68.75C799.8 68.9551 799.973 69.1221 800.184 69.251C800.395 69.374 800.629 69.4648 800.887 69.5234C801.145 69.5762 801.405 69.6025 801.669 69.6025C802.319 69.6025 802.814 69.4941 803.154 69.2773C803.494 69.0547 803.664 68.7705 803.664 68.4248Z" fill="#272833" />
    <circle cx="12.5" cy="12.5" r="12" stroke="#272833" />
    <circle cx="184.5" cy="12.5" r="12" stroke="#272833" />
    <circle cx="356.5" cy="12.5" r="12" stroke="#272833" />
    <circle cx="528.5" cy="12.5" r="12" stroke="#272833" />
    <circle cx="700.5" cy="12.5" r="12" stroke="#272833" />
    <rect x="24" y="12" width="149" height="1" fill="#272833" />
    <rect x="196" y="12" width="149" height="1" fill="#272833" />
    <rect x="368" y="12" width="149" height="1" fill="#272833" />
    <rect x="540" y="12" width="149" height="1" fill="#272833" />
</svg>