<svg width="14" height="14" viewBox="0 0 14 14" fill="none" xmlns="http://www.w3.org/2000/svg">
<path d="M7 0.333496C10.682 0.333496 13.6667 3.31816 13.6667 7.00016C13.6667 10.6822 10.682 13.6668 7 13.6668C3.318 13.6668 0.333334 10.6822 0.333334 7.00016C0.333334 3.31816 3.318 0.333496 7 0.333496ZM7 1.66683C5.58551 1.66683 4.22896 2.22873 3.22876 3.22893C2.22857 4.22912 1.66667 5.58567 1.66667 7.00016C1.66667 8.41465 2.22857 9.77121 3.22876 10.7714C4.22896 11.7716 5.58551 12.3335 7 12.3335C8.41449 12.3335 9.77104 11.7716 10.7712 10.7714C11.7714 9.77121 12.3333 8.41465 12.3333 7.00016C12.3333 5.58567 11.7714 4.22912 10.7712 3.22893C9.77104 2.22873 8.41449 1.66683 7 1.66683ZM7 3.66683C7.70173 3.6671 8.38547 3.88881 8.95382 4.30039C9.52216 4.71197 9.94613 5.29241 10.1653 5.95903C10.3845 6.62565 10.3877 7.34443 10.1745 8.01298C9.96126 8.68153 9.5425 9.26573 8.97785 9.68237C8.4132 10.099 7.73146 10.3268 7.02977 10.3334C6.32807 10.3399 5.64222 10.1248 5.06991 9.71875C4.4976 9.3127 4.06803 8.73639 3.8424 8.07193C3.61678 7.40746 3.60661 6.68875 3.81333 6.01816C3.96928 6.36664 4.24018 6.65098 4.58071 6.8236C4.92123 6.99623 5.31071 7.04666 5.68397 6.96647C6.05723 6.88627 6.39162 6.68031 6.63118 6.38305C6.87075 6.08579 7.00095 5.71527 7 5.3335C7.00009 5.01247 6.90746 4.69826 6.73326 4.42861C6.55906 4.15897 6.31069 3.94537 6.018 3.8135C6.32867 3.71816 6.658 3.66683 7 3.66683Z" fill="white"/>
</svg>
