<svg width="48" height="48" viewBox="0 0 48 48" fill="none" xmlns="http://www.w3.org/2000/svg">
<rect width="48" height="48" rx="24" fill="#C2D7FF"/>
<path d="M29 29H34V31H31V34H29V29ZM19 19H14V17H17V14H19V19ZM30.364 27.536L28.95 26.12L30.364 24.706C30.8316 24.2424 31.2031 23.6911 31.4571 23.0836C31.711 22.4761 31.8425 21.8244 31.844 21.166C31.8454 20.5075 31.7168 19.8553 31.4655 19.2467C31.2142 18.6381 30.8451 18.0851 30.3795 17.6195C29.9139 17.1539 29.3609 16.7848 28.7523 16.5335C28.1437 16.2822 27.4915 16.1536 26.833 16.155C26.1746 16.1565 25.5229 16.288 24.9154 16.5419C24.3079 16.7959 23.7566 17.1674 23.293 17.635L21.879 19.05L20.464 17.636L21.88 16.222C23.1928 14.9092 24.9734 14.1716 26.83 14.1716C28.6866 14.1716 30.4672 14.9092 31.78 16.222C33.0928 17.5348 33.8304 19.3154 33.8304 21.172C33.8304 23.0286 33.0928 24.8092 31.78 26.122L30.365 27.536H30.364ZM27.536 30.364L26.121 31.778C24.8082 33.0908 23.0276 33.8284 21.171 33.8284C19.3144 33.8284 17.5338 33.0908 16.221 31.778C14.9082 30.4652 14.1706 28.6846 14.1706 26.828C14.1706 24.9714 14.9082 23.1908 16.221 21.878L17.636 20.464L19.05 21.88L17.636 23.294C17.1684 23.7576 16.7969 24.3089 16.5429 24.9164C16.289 25.5239 16.1575 26.1756 16.156 26.834C16.1546 27.4925 16.2832 28.1447 16.5345 28.7533C16.7858 29.3619 17.1549 29.9149 17.6205 30.3805C18.0861 30.8461 18.6391 31.2152 19.2477 31.4665C19.8563 31.7178 20.5085 31.8464 21.167 31.845C21.8254 31.8435 22.4771 31.712 23.0846 31.4581C23.6921 31.2041 24.2434 30.8326 24.707 30.365L26.121 28.951L27.536 30.365V30.364ZM26.828 19.757L28.243 21.172L21.172 28.242L19.757 26.828L26.828 19.758V19.757Z" fill="#0B5FFF"/>
</svg>
