<svg width="486" height="254" viewBox="0 0 486 254" fill="none" xmlns="http://www.w3.org/2000/svg">
<rect x="0.5" y="0.5" width="485" height="253" rx="7.5" fill="white" stroke="#E7E7ED"/>
<path d="M134.809 76.9922L133.004 78.9727V84H129.699V66.9375H133.004V74.7539L134.551 72.668L138.699 66.9375H142.73L136.988 74.4844L142.941 84H139.027L134.809 76.9922ZM156.043 76.7227C156.043 77.8164 155.898 78.8242 155.609 79.7461C155.32 80.668 154.902 81.4609 154.355 82.125C153.809 82.7891 153.141 83.3086 152.352 83.6836C151.57 84.0508 150.688 84.2344 149.703 84.2344C148.719 84.2344 147.844 84.0508 147.078 83.6836C146.312 83.3086 145.668 82.7891 145.145 82.125C144.621 81.4531 144.223 80.6602 143.949 79.7461C143.676 78.8242 143.539 77.8164 143.539 76.7227V74.2383C143.539 73.1445 143.676 72.1367 143.949 71.2148C144.223 70.293 144.621 69.5 145.145 68.8359C145.668 68.1641 146.309 67.6406 147.066 67.2656C147.832 66.8906 148.707 66.7031 149.691 66.7031C150.684 66.7031 151.57 66.8906 152.352 67.2656C153.141 67.6406 153.809 68.1641 154.355 68.8359C154.902 69.5 155.32 70.293 155.609 71.2148C155.898 72.1367 156.043 73.1445 156.043 74.2383V76.7227ZM152.703 74.2148C152.703 73.5195 152.645 72.8789 152.527 72.293C152.418 71.707 152.242 71.2031 152 70.7812C151.758 70.3594 151.445 70.0312 151.062 69.7969C150.688 69.5547 150.23 69.4336 149.691 69.4336C149.16 69.4336 148.715 69.5547 148.355 69.7969C147.996 70.0312 147.707 70.3594 147.488 70.7812C147.27 71.2031 147.113 71.707 147.02 72.293C146.926 72.8789 146.879 73.5195 146.879 74.2148V76.7227C146.879 77.4102 146.926 78.0469 147.02 78.6328C147.113 79.2188 147.27 79.7266 147.488 80.1562C147.707 80.5859 147.996 80.9219 148.355 81.1641C148.715 81.4062 149.164 81.5273 149.703 81.5273C150.234 81.5273 150.688 81.4062 151.062 81.1641C151.445 80.9219 151.754 80.5898 151.988 80.168C152.23 79.7383 152.41 79.2305 152.527 78.6445C152.645 78.0586 152.703 77.418 152.703 76.7227V74.2148ZM158.48 84V66.9375H162.898C164.031 66.9375 165.055 67.1328 165.969 67.5234C166.891 67.9062 167.676 68.4453 168.324 69.1406C168.98 69.8281 169.484 70.6523 169.836 71.6133C170.195 72.5742 170.375 73.6289 170.375 74.7773V76.1836C170.375 77.332 170.195 78.3867 169.836 79.3477C169.484 80.3008 168.988 81.125 168.348 81.8203C167.707 82.5078 166.938 83.043 166.039 83.4258C165.141 83.8086 164.148 84 163.062 84H158.48ZM161.797 69.6094V81.3516H163.062C163.68 81.3516 164.23 81.2344 164.715 81C165.207 80.7656 165.621 80.4258 165.957 79.9805C166.301 79.5352 166.562 78.9961 166.742 78.3633C166.922 77.7227 167.012 76.9961 167.012 76.1836V74.7539C167.012 73.9883 166.922 73.293 166.742 72.668C166.57 72.0352 166.309 71.4922 165.957 71.0391C165.613 70.5859 165.184 70.2344 164.668 69.9844C164.16 69.7344 163.57 69.6094 162.898 69.6094H161.797ZM183.465 76.5234H176.457V81.3398H184.648V84H173.152V66.9375H184.613V69.6211H176.457V73.9219H183.465V76.5234ZM192.465 76.9922L190.66 78.9727V84H187.355V66.9375H190.66V74.7539L192.207 72.668L196.355 66.9375H200.387L194.645 74.4844L200.598 84H196.684L192.465 76.9922ZM202.52 66.9375H212.387V69.5977H209.059V81.3516H212.387V84H202.52V81.3516H205.766V69.5977H202.52V66.9375ZM228.746 69.6211H223.484V84H220.18V69.6211H214.988V66.9375H228.746V69.6211ZM257.574 69.6211H252.312V84H249.008V69.6211H243.816V66.9375H257.574V69.6211ZM265.719 84.2344C264.742 84.2344 263.855 84.0742 263.059 83.7539C262.262 83.4336 261.578 83 261.008 82.4531C260.438 81.8984 259.996 81.25 259.684 80.5078C259.379 79.7578 259.227 78.957 259.227 78.1055V77.6367C259.227 76.668 259.379 75.7852 259.684 74.9883C259.988 74.1836 260.414 73.4922 260.961 72.9141C261.508 72.3359 262.156 71.8867 262.906 71.5664C263.656 71.2461 264.473 71.0859 265.355 71.0859C266.27 71.0859 267.082 71.2383 267.793 71.543C268.512 71.8398 269.117 72.2617 269.609 72.8086C270.109 73.3555 270.488 74.0156 270.746 74.7891C271.004 75.5547 271.133 76.4023 271.133 77.332V78.7148H262.531C262.594 79.1445 262.719 79.5391 262.906 79.8984C263.102 80.25 263.348 80.5547 263.645 80.8125C263.941 81.0703 264.281 81.2695 264.664 81.4102C265.047 81.5508 265.465 81.6211 265.918 81.6211C266.238 81.6211 266.555 81.5898 266.867 81.5273C267.188 81.4648 267.492 81.375 267.781 81.2578C268.07 81.1328 268.34 80.9805 268.59 80.8008C268.84 80.6211 269.059 80.4102 269.246 80.168L270.875 81.9258C270.672 82.2148 270.406 82.5 270.078 82.7812C269.758 83.0547 269.375 83.3008 268.93 83.5195C268.492 83.7305 268.004 83.9023 267.465 84.0352C266.926 84.168 266.344 84.2344 265.719 84.2344ZM265.332 73.7227C264.965 73.7227 264.629 73.7891 264.324 73.9219C264.02 74.0469 263.75 74.2305 263.516 74.4727C263.289 74.7148 263.098 75.0039 262.941 75.3398C262.785 75.6758 262.668 76.0508 262.59 76.4648H267.934V76.207C267.918 75.8633 267.852 75.5391 267.734 75.2344C267.617 74.9297 267.449 74.668 267.23 74.4492C267.012 74.2227 266.742 74.0469 266.422 73.9219C266.109 73.7891 265.746 73.7227 265.332 73.7227ZM276.008 71.3203L276.102 72.8555C276.344 72.3086 276.676 71.8789 277.098 71.5664C277.527 71.2461 278.047 71.0859 278.656 71.0859C279.68 71.0859 280.348 71.5352 280.66 72.4336C280.91 72.0117 281.227 71.6836 281.609 71.4492C282 71.207 282.469 71.0859 283.016 71.0859C283.398 71.0859 283.754 71.1562 284.082 71.2969C284.418 71.4375 284.707 71.6641 284.949 71.9766C285.199 72.2812 285.391 72.6797 285.523 73.1719C285.664 73.6562 285.734 74.25 285.734 74.9531V84H282.77V74.9414C282.77 74.6992 282.742 74.5 282.688 74.3438C282.641 74.1875 282.574 74.0664 282.488 73.9805C282.402 73.8867 282.301 73.8242 282.184 73.793C282.074 73.7539 281.961 73.7344 281.844 73.7344C281.617 73.7344 281.426 73.7891 281.27 73.8984C281.113 74 280.992 74.1406 280.906 74.3203V84H278.035V74.9297C278.035 74.6875 278.012 74.4883 277.965 74.332C277.918 74.1758 277.852 74.0547 277.766 73.9688C277.688 73.8828 277.594 73.8242 277.484 73.793C277.375 73.7539 277.258 73.7344 277.133 73.7344C276.883 73.7344 276.68 73.8047 276.523 73.9453C276.375 74.0859 276.258 74.2734 276.172 74.5078V84H273.207V71.3203H276.008ZM299.785 77.7773C299.785 78.6992 299.676 79.5547 299.457 80.3438C299.246 81.1328 298.93 81.8164 298.508 82.3945C298.094 82.9648 297.578 83.4141 296.961 83.7422C296.344 84.0703 295.637 84.2344 294.84 84.2344C294.16 84.2344 293.562 84.1172 293.047 83.8828C292.531 83.6484 292.082 83.3203 291.699 82.8984V88.875H288.441V71.3203H291.453L291.57 72.5625C291.961 72.0938 292.422 71.7305 292.953 71.4727C293.484 71.2148 294.105 71.0859 294.816 71.0859C295.621 71.0859 296.332 71.2422 296.949 71.5547C297.566 71.8594 298.086 72.2969 298.508 72.8672C298.93 73.4297 299.246 74.1094 299.457 74.9062C299.676 75.6953 299.785 76.5703 299.785 77.5312V77.7773ZM296.527 77.5312C296.527 77 296.477 76.5039 296.375 76.043C296.281 75.5742 296.129 75.1719 295.918 74.8359C295.715 74.4922 295.449 74.2227 295.121 74.0273C294.801 73.832 294.41 73.7344 293.949 73.7344C293.379 73.7344 292.91 73.8477 292.543 74.0742C292.184 74.293 291.902 74.6055 291.699 75.0117V80.3086C291.902 80.707 292.184 81.0273 292.543 81.2695C292.91 81.5039 293.387 81.6211 293.973 81.6211C294.434 81.6211 294.824 81.5195 295.145 81.3164C295.473 81.1133 295.738 80.8359 295.941 80.4844C296.145 80.1328 296.293 79.7266 296.387 79.2656C296.48 78.7969 296.527 78.3008 296.527 77.7773V77.5312ZM303.488 66H310.578V81.3516H314.211V84H303.488V81.3516H307.285V68.6602H303.488V66ZM325.145 84C325.066 83.8438 325 83.6641 324.945 83.4609C324.891 83.2578 324.844 83.043 324.805 82.8164C324.625 83.0117 324.418 83.1953 324.184 83.3672C323.949 83.5391 323.688 83.6914 323.398 83.8242C323.117 83.9492 322.805 84.0469 322.461 84.1172C322.117 84.1953 321.746 84.2344 321.348 84.2344C320.699 84.2344 320.102 84.1406 319.555 83.9531C319.016 83.7656 318.551 83.5039 318.16 83.168C317.77 82.832 317.465 82.4336 317.246 81.9727C317.027 81.5039 316.918 80.9961 316.918 80.4492C316.918 79.1133 317.414 78.082 318.406 77.3555C319.406 76.6211 320.895 76.2539 322.871 76.2539H324.688V75.5039C324.688 74.8945 324.488 74.4141 324.09 74.0625C323.691 73.7031 323.117 73.5234 322.367 73.5234C321.703 73.5234 321.219 73.668 320.914 73.957C320.609 74.2383 320.457 74.6172 320.457 75.0938H317.199C317.199 74.5547 317.316 74.043 317.551 73.5586C317.793 73.0742 318.141 72.6484 318.594 72.2812C319.055 71.9141 319.613 71.625 320.27 71.4141C320.934 71.1953 321.691 71.0859 322.543 71.0859C323.309 71.0859 324.02 71.1797 324.676 71.3672C325.34 71.5547 325.914 71.832 326.398 72.1992C326.883 72.5664 327.262 73.0312 327.535 73.5938C327.809 74.1484 327.945 74.793 327.945 75.5273V80.9648C327.945 81.6445 327.988 82.207 328.074 82.6523C328.16 83.0977 328.285 83.4805 328.449 83.8008V84H325.145ZM322.039 81.7148C322.367 81.7148 322.672 81.6758 322.953 81.5977C323.234 81.5195 323.488 81.418 323.715 81.293C323.941 81.168 324.137 81.0273 324.301 80.8711C324.465 80.707 324.594 80.543 324.688 80.3789V78.1992H323.023C322.516 78.1992 322.082 78.25 321.723 78.3516C321.363 78.4453 321.07 78.582 320.844 78.7617C320.617 78.9336 320.449 79.1445 320.34 79.3945C320.23 79.6367 320.176 79.9023 320.176 80.1914C320.176 80.6289 320.328 80.9922 320.633 81.2812C320.945 81.5703 321.414 81.7148 322.039 81.7148ZM337.613 68.2148V71.3203H342.348V73.7227H337.613V79.1719C337.613 79.6328 337.664 80.0195 337.766 80.332C337.875 80.6367 338.027 80.8828 338.223 81.0703C338.418 81.25 338.652 81.3789 338.926 81.457C339.207 81.5352 339.52 81.5742 339.863 81.5742C340.113 81.5742 340.367 81.5625 340.625 81.5391C340.891 81.5156 341.141 81.4883 341.375 81.457C341.617 81.418 341.84 81.3789 342.043 81.3398C342.254 81.3008 342.434 81.2617 342.582 81.2227L342.898 83.4609C342.672 83.5938 342.406 83.7109 342.102 83.8125C341.797 83.9062 341.473 83.9844 341.129 84.0469C340.785 84.1094 340.426 84.1562 340.051 84.1875C339.684 84.2266 339.32 84.2461 338.961 84.2461C338.266 84.2461 337.633 84.1562 337.062 83.9766C336.5 83.7891 336.016 83.5039 335.609 83.1211C335.211 82.7305 334.902 82.2383 334.684 81.6445C334.465 81.043 334.355 80.3242 334.355 79.4883V73.7227H331.461V71.3203H334.355V68.2148H337.613ZM352.203 84.2344C351.227 84.2344 350.34 84.0742 349.543 83.7539C348.746 83.4336 348.062 83 347.492 82.4531C346.922 81.8984 346.48 81.25 346.168 80.5078C345.863 79.7578 345.711 78.957 345.711 78.1055V77.6367C345.711 76.668 345.863 75.7852 346.168 74.9883C346.473 74.1836 346.898 73.4922 347.445 72.9141C347.992 72.3359 348.641 71.8867 349.391 71.5664C350.141 71.2461 350.957 71.0859 351.84 71.0859C352.754 71.0859 353.566 71.2383 354.277 71.543C354.996 71.8398 355.602 72.2617 356.094 72.8086C356.594 73.3555 356.973 74.0156 357.23 74.7891C357.488 75.5547 357.617 76.4023 357.617 77.332V78.7148H349.016C349.078 79.1445 349.203 79.5391 349.391 79.8984C349.586 80.25 349.832 80.5547 350.129 80.8125C350.426 81.0703 350.766 81.2695 351.148 81.4102C351.531 81.5508 351.949 81.6211 352.402 81.6211C352.723 81.6211 353.039 81.5898 353.352 81.5273C353.672 81.4648 353.977 81.375 354.266 81.2578C354.555 81.1328 354.824 80.9805 355.074 80.8008C355.324 80.6211 355.543 80.4102 355.73 80.168L357.359 81.9258C357.156 82.2148 356.891 82.5 356.562 82.7812C356.242 83.0547 355.859 83.3008 355.414 83.5195C354.977 83.7305 354.488 83.9023 353.949 84.0352C353.41 84.168 352.828 84.2344 352.203 84.2344ZM351.816 73.7227C351.449 73.7227 351.113 73.7891 350.809 73.9219C350.504 74.0469 350.234 74.2305 350 74.4727C349.773 74.7148 349.582 75.0039 349.426 75.3398C349.27 75.6758 349.152 76.0508 349.074 76.4648H354.418V76.207C354.402 75.8633 354.336 75.5391 354.219 75.2344C354.102 74.9297 353.934 74.668 353.715 74.4492C353.496 74.2227 353.227 74.0469 352.906 73.9219C352.594 73.7891 352.23 73.7227 351.816 73.7227Z" fill="#272833"/>
<path d="M117.461 110.625L121.18 119.906L124.898 110.625H126.844V122H125.344V117.57L125.484 112.789L121.75 122H120.602L116.875 112.812L117.023 117.57V122H115.523V110.625H117.461ZM134.484 122C134.401 121.833 134.333 121.536 134.281 121.109C133.609 121.807 132.807 122.156 131.875 122.156C131.042 122.156 130.357 121.922 129.82 121.453C129.289 120.979 129.023 120.38 129.023 119.656C129.023 118.776 129.357 118.094 130.023 117.609C130.695 117.12 131.638 116.875 132.852 116.875H134.258V116.211C134.258 115.706 134.107 115.305 133.805 115.008C133.503 114.706 133.057 114.555 132.469 114.555C131.953 114.555 131.521 114.685 131.172 114.945C130.823 115.206 130.648 115.521 130.648 115.891H129.195C129.195 115.469 129.344 115.062 129.641 114.672C129.943 114.276 130.349 113.964 130.859 113.734C131.375 113.505 131.94 113.391 132.555 113.391C133.529 113.391 134.292 113.635 134.844 114.125C135.396 114.609 135.682 115.279 135.703 116.133V120.023C135.703 120.799 135.802 121.417 136 121.875V122H134.484ZM132.086 120.898C132.539 120.898 132.969 120.781 133.375 120.547C133.781 120.312 134.076 120.008 134.258 119.633V117.898H133.125C131.354 117.898 130.469 118.417 130.469 119.453C130.469 119.906 130.62 120.26 130.922 120.516C131.224 120.771 131.612 120.898 132.086 120.898ZM140.328 118.086L139.422 119.031V122H137.977V110H139.422V117.258L140.195 116.328L142.828 113.547H144.586L141.297 117.078L144.969 122H143.273L140.328 118.086ZM147.648 122H146.203V113.547H147.648V122ZM146.086 111.305C146.086 111.07 146.156 110.872 146.297 110.711C146.443 110.549 146.656 110.469 146.938 110.469C147.219 110.469 147.432 110.549 147.578 110.711C147.724 110.872 147.797 111.07 147.797 111.305C147.797 111.539 147.724 111.734 147.578 111.891C147.432 112.047 147.219 112.125 146.938 112.125C146.656 112.125 146.443 112.047 146.297 111.891C146.156 111.734 146.086 111.539 146.086 111.305ZM151.336 113.547L151.383 114.609C152.029 113.797 152.872 113.391 153.914 113.391C155.701 113.391 156.602 114.398 156.617 116.414V122H155.172V116.406C155.167 115.797 155.026 115.346 154.75 115.055C154.479 114.763 154.055 114.617 153.477 114.617C153.008 114.617 152.596 114.742 152.242 114.992C151.888 115.242 151.612 115.57 151.414 115.977V122H149.969V113.547H151.336ZM158.453 117.703C158.453 116.385 158.758 115.339 159.367 114.562C159.977 113.781 160.784 113.391 161.789 113.391C162.82 113.391 163.625 113.755 164.203 114.484L164.273 113.547H165.594V121.797C165.594 122.891 165.268 123.753 164.617 124.383C163.971 125.013 163.102 125.328 162.008 125.328C161.398 125.328 160.802 125.198 160.219 124.938C159.635 124.677 159.19 124.32 158.883 123.867L159.633 123C160.253 123.766 161.01 124.148 161.906 124.148C162.609 124.148 163.156 123.951 163.547 123.555C163.943 123.159 164.141 122.602 164.141 121.883V121.156C163.562 121.823 162.773 122.156 161.773 122.156C160.784 122.156 159.982 121.758 159.367 120.961C158.758 120.164 158.453 119.078 158.453 117.703ZM159.906 117.867C159.906 118.82 160.102 119.57 160.492 120.117C160.883 120.659 161.43 120.93 162.133 120.93C163.044 120.93 163.714 120.516 164.141 119.688V115.828C163.698 115.021 163.034 114.617 162.148 114.617C161.445 114.617 160.896 114.891 160.5 115.438C160.104 115.984 159.906 116.794 159.906 117.867ZM174.516 119.883L176.484 113.547H178.031L174.633 123.305C174.107 124.711 173.271 125.414 172.125 125.414L171.852 125.391L171.312 125.289V124.117L171.703 124.148C172.193 124.148 172.573 124.049 172.844 123.852C173.12 123.654 173.346 123.292 173.523 122.766L173.844 121.906L170.828 113.547H172.406L174.516 119.883ZM178.82 117.695C178.82 116.867 178.982 116.122 179.305 115.461C179.633 114.799 180.086 114.289 180.664 113.93C181.247 113.57 181.911 113.391 182.656 113.391C183.807 113.391 184.737 113.789 185.445 114.586C186.159 115.383 186.516 116.443 186.516 117.766V117.867C186.516 118.69 186.357 119.43 186.039 120.086C185.727 120.737 185.276 121.245 184.688 121.609C184.104 121.974 183.432 122.156 182.672 122.156C181.526 122.156 180.596 121.758 179.883 120.961C179.174 120.164 178.82 119.109 178.82 117.797V117.695ZM180.273 117.867C180.273 118.805 180.49 119.557 180.922 120.125C181.359 120.693 181.943 120.977 182.672 120.977C183.406 120.977 183.99 120.69 184.422 120.117C184.854 119.539 185.07 118.732 185.07 117.695C185.07 116.768 184.849 116.018 184.406 115.445C183.969 114.867 183.385 114.578 182.656 114.578C181.943 114.578 181.367 114.862 180.93 115.43C180.492 115.997 180.273 116.81 180.273 117.867ZM193.547 121.164C192.984 121.826 192.159 122.156 191.07 122.156C190.169 122.156 189.482 121.896 189.008 121.375C188.539 120.849 188.302 120.073 188.297 119.047V113.547H189.742V119.008C189.742 120.289 190.263 120.93 191.305 120.93C192.409 120.93 193.143 120.518 193.508 119.695V113.547H194.953V122H193.578L193.547 121.164ZM201.242 114.844C201.023 114.807 200.786 114.789 200.531 114.789C199.583 114.789 198.94 115.193 198.602 116V122H197.156V113.547H198.562L198.586 114.523C199.06 113.768 199.732 113.391 200.602 113.391C200.883 113.391 201.096 113.427 201.242 113.5V114.844ZM214.031 120.008L215.656 113.547H217.102L214.641 122H213.469L211.414 115.594L209.414 122H208.242L205.789 113.547H207.227L208.891 119.875L210.859 113.547H212.023L214.031 120.008ZM218.195 117.695C218.195 116.867 218.357 116.122 218.68 115.461C219.008 114.799 219.461 114.289 220.039 113.93C220.622 113.57 221.286 113.391 222.031 113.391C223.182 113.391 224.112 113.789 224.82 114.586C225.534 115.383 225.891 116.443 225.891 117.766V117.867C225.891 118.69 225.732 119.43 225.414 120.086C225.102 120.737 224.651 121.245 224.062 121.609C223.479 121.974 222.807 122.156 222.047 122.156C220.901 122.156 219.971 121.758 219.258 120.961C218.549 120.164 218.195 119.109 218.195 117.797V117.695ZM219.648 117.867C219.648 118.805 219.865 119.557 220.297 120.125C220.734 120.693 221.318 120.977 222.047 120.977C222.781 120.977 223.365 120.69 223.797 120.117C224.229 119.539 224.445 118.732 224.445 117.695C224.445 116.768 224.224 116.018 223.781 115.445C223.344 114.867 222.76 114.578 222.031 114.578C221.318 114.578 220.742 114.862 220.305 115.43C219.867 115.997 219.648 116.81 219.648 117.867ZM231.789 114.844C231.57 114.807 231.333 114.789 231.078 114.789C230.13 114.789 229.487 115.193 229.148 116V122H227.703V113.547H229.109L229.133 114.523C229.607 113.768 230.279 113.391 231.148 113.391C231.43 113.391 231.643 113.427 231.789 113.5V114.844ZM235.484 118.086L234.578 119.031V122H233.133V110H234.578V117.258L235.352 116.328L237.984 113.547H239.742L236.453 117.078L240.125 122H238.43L235.484 118.086ZM246.773 122H245.328V110H246.773V122ZM248.711 117.695C248.711 116.867 248.872 116.122 249.195 115.461C249.523 114.799 249.977 114.289 250.555 113.93C251.138 113.57 251.802 113.391 252.547 113.391C253.698 113.391 254.628 113.789 255.336 114.586C256.049 115.383 256.406 116.443 256.406 117.766V117.867C256.406 118.69 256.247 119.43 255.93 120.086C255.617 120.737 255.167 121.245 254.578 121.609C253.995 121.974 253.323 122.156 252.562 122.156C251.417 122.156 250.487 121.758 249.773 120.961C249.065 120.164 248.711 119.109 248.711 117.797V117.695ZM250.164 117.867C250.164 118.805 250.38 119.557 250.812 120.125C251.25 120.693 251.833 120.977 252.562 120.977C253.297 120.977 253.88 120.69 254.312 120.117C254.745 119.539 254.961 118.732 254.961 117.695C254.961 116.768 254.74 116.018 254.297 115.445C253.859 114.867 253.276 114.578 252.547 114.578C251.833 114.578 251.258 114.862 250.82 115.43C250.383 115.997 250.164 116.81 250.164 117.867ZM257.836 117.695C257.836 116.867 257.997 116.122 258.32 115.461C258.648 114.799 259.102 114.289 259.68 113.93C260.263 113.57 260.927 113.391 261.672 113.391C262.823 113.391 263.753 113.789 264.461 114.586C265.174 115.383 265.531 116.443 265.531 117.766V117.867C265.531 118.69 265.372 119.43 265.055 120.086C264.742 120.737 264.292 121.245 263.703 121.609C263.12 121.974 262.448 122.156 261.688 122.156C260.542 122.156 259.612 121.758 258.898 120.961C258.19 120.164 257.836 119.109 257.836 117.797V117.695ZM259.289 117.867C259.289 118.805 259.505 119.557 259.938 120.125C260.375 120.693 260.958 120.977 261.688 120.977C262.422 120.977 263.005 120.69 263.438 120.117C263.87 119.539 264.086 118.732 264.086 117.695C264.086 116.768 263.865 116.018 263.422 115.445C262.984 114.867 262.401 114.578 261.672 114.578C260.958 114.578 260.383 114.862 259.945 115.43C259.508 115.997 259.289 116.81 259.289 117.867ZM269.703 118.086L268.797 119.031V122H267.352V110H268.797V117.258L269.57 116.328L272.203 113.547H273.961L270.672 117.078L274.344 122H272.648L269.703 118.086ZM286.578 117.867C286.578 119.159 286.281 120.198 285.688 120.984C285.094 121.766 284.297 122.156 283.297 122.156C282.229 122.156 281.404 121.779 280.82 121.023L280.75 122H279.422V110H280.867V114.477C281.451 113.753 282.255 113.391 283.281 113.391C284.307 113.391 285.112 113.779 285.695 114.555C286.284 115.331 286.578 116.393 286.578 117.742V117.867ZM285.133 117.703C285.133 116.719 284.943 115.958 284.562 115.422C284.182 114.885 283.635 114.617 282.922 114.617C281.969 114.617 281.284 115.06 280.867 115.945V119.602C281.31 120.487 282 120.93 282.938 120.93C283.63 120.93 284.169 120.661 284.555 120.125C284.94 119.589 285.133 118.781 285.133 117.703ZM291.914 122.156C290.768 122.156 289.836 121.781 289.117 121.031C288.398 120.276 288.039 119.268 288.039 118.008V117.742C288.039 116.904 288.198 116.156 288.516 115.5C288.839 114.839 289.286 114.323 289.859 113.953C290.438 113.578 291.062 113.391 291.734 113.391C292.833 113.391 293.688 113.753 294.297 114.477C294.906 115.201 295.211 116.237 295.211 117.586V118.188H289.484C289.505 119.021 289.747 119.695 290.211 120.211C290.68 120.721 291.273 120.977 291.992 120.977C292.503 120.977 292.935 120.872 293.289 120.664C293.643 120.456 293.953 120.18 294.219 119.836L295.102 120.523C294.393 121.612 293.331 122.156 291.914 122.156ZM291.734 114.578C291.151 114.578 290.661 114.792 290.266 115.219C289.87 115.641 289.625 116.234 289.531 117H293.766V116.891C293.724 116.156 293.526 115.589 293.172 115.188C292.818 114.781 292.339 114.578 291.734 114.578ZM298.852 111.5V113.547H300.43V114.664H298.852V119.906C298.852 120.245 298.922 120.5 299.062 120.672C299.203 120.839 299.443 120.922 299.781 120.922C299.948 120.922 300.177 120.891 300.469 120.828V122C300.089 122.104 299.719 122.156 299.359 122.156C298.714 122.156 298.227 121.961 297.898 121.57C297.57 121.18 297.406 120.625 297.406 119.906V114.664H295.867V113.547H297.406V111.5H298.852ZM304.086 111.5V113.547H305.664V114.664H304.086V119.906C304.086 120.245 304.156 120.5 304.297 120.672C304.438 120.839 304.677 120.922 305.016 120.922C305.182 120.922 305.411 120.891 305.703 120.828V122C305.323 122.104 304.953 122.156 304.594 122.156C303.948 122.156 303.461 121.961 303.133 121.57C302.805 121.18 302.641 120.625 302.641 119.906V114.664H301.102V113.547H302.641V111.5H304.086ZM310.867 122.156C309.721 122.156 308.789 121.781 308.07 121.031C307.352 120.276 306.992 119.268 306.992 118.008V117.742C306.992 116.904 307.151 116.156 307.469 115.5C307.792 114.839 308.24 114.323 308.812 113.953C309.391 113.578 310.016 113.391 310.688 113.391C311.786 113.391 312.641 113.753 313.25 114.477C313.859 115.201 314.164 116.237 314.164 117.586V118.188H308.438C308.458 119.021 308.701 119.695 309.164 120.211C309.633 120.721 310.227 120.977 310.945 120.977C311.456 120.977 311.888 120.872 312.242 120.664C312.596 120.456 312.906 120.18 313.172 119.836L314.055 120.523C313.346 121.612 312.284 122.156 310.867 122.156ZM310.688 114.578C310.104 114.578 309.615 114.792 309.219 115.219C308.823 115.641 308.578 116.234 308.484 117H312.719V116.891C312.677 116.156 312.479 115.589 312.125 115.188C311.771 114.781 311.292 114.578 310.688 114.578ZM319.93 114.844C319.711 114.807 319.474 114.789 319.219 114.789C318.271 114.789 317.628 115.193 317.289 116V122H315.844V113.547H317.25L317.273 114.523C317.747 113.768 318.419 113.391 319.289 113.391C319.57 113.391 319.784 113.427 319.93 113.5V114.844ZM320.25 124.266L319.43 123.703C319.919 123.021 320.174 122.318 320.195 121.594V120.289H321.609V121.422C321.609 121.948 321.479 122.474 321.219 123C320.964 123.526 320.641 123.948 320.25 124.266ZM330.914 122.156C329.768 122.156 328.836 121.781 328.117 121.031C327.398 120.276 327.039 119.268 327.039 118.008V117.742C327.039 116.904 327.198 116.156 327.516 115.5C327.839 114.839 328.286 114.323 328.859 113.953C329.438 113.578 330.062 113.391 330.734 113.391C331.833 113.391 332.688 113.753 333.297 114.477C333.906 115.201 334.211 116.237 334.211 117.586V118.188H328.484C328.505 119.021 328.747 119.695 329.211 120.211C329.68 120.721 330.273 120.977 330.992 120.977C331.503 120.977 331.935 120.872 332.289 120.664C332.643 120.456 332.953 120.18 333.219 119.836L334.102 120.523C333.393 121.612 332.331 122.156 330.914 122.156ZM330.734 114.578C330.151 114.578 329.661 114.792 329.266 115.219C328.87 115.641 328.625 116.234 328.531 117H332.766V116.891C332.724 116.156 332.526 115.589 332.172 115.188C331.818 114.781 331.339 114.578 330.734 114.578ZM341.109 122C341.026 121.833 340.958 121.536 340.906 121.109C340.234 121.807 339.432 122.156 338.5 122.156C337.667 122.156 336.982 121.922 336.445 121.453C335.914 120.979 335.648 120.38 335.648 119.656C335.648 118.776 335.982 118.094 336.648 117.609C337.32 117.12 338.263 116.875 339.477 116.875H340.883V116.211C340.883 115.706 340.732 115.305 340.43 115.008C340.128 114.706 339.682 114.555 339.094 114.555C338.578 114.555 338.146 114.685 337.797 114.945C337.448 115.206 337.273 115.521 337.273 115.891H335.82C335.82 115.469 335.969 115.062 336.266 114.672C336.568 114.276 336.974 113.964 337.484 113.734C338 113.505 338.565 113.391 339.18 113.391C340.154 113.391 340.917 113.635 341.469 114.125C342.021 114.609 342.307 115.279 342.328 116.133V120.023C342.328 120.799 342.427 121.417 342.625 121.875V122H341.109ZM338.711 120.898C339.164 120.898 339.594 120.781 340 120.547C340.406 120.312 340.701 120.008 340.883 119.633V117.898H339.75C337.979 117.898 337.094 118.417 337.094 119.453C337.094 119.906 337.245 120.26 337.547 120.516C337.849 120.771 338.237 120.898 338.711 120.898ZM349.516 119.758C349.516 119.367 349.367 119.065 349.07 118.852C348.779 118.633 348.266 118.445 347.531 118.289C346.802 118.133 346.221 117.945 345.789 117.727C345.362 117.508 345.044 117.247 344.836 116.945C344.633 116.643 344.531 116.284 344.531 115.867C344.531 115.174 344.823 114.589 345.406 114.109C345.995 113.63 346.745 113.391 347.656 113.391C348.615 113.391 349.391 113.638 349.984 114.133C350.583 114.628 350.883 115.26 350.883 116.031H349.43C349.43 115.635 349.26 115.294 348.922 115.008C348.589 114.721 348.167 114.578 347.656 114.578C347.13 114.578 346.719 114.693 346.422 114.922C346.125 115.151 345.977 115.451 345.977 115.82C345.977 116.169 346.115 116.432 346.391 116.609C346.667 116.786 347.164 116.956 347.883 117.117C348.607 117.279 349.193 117.471 349.641 117.695C350.089 117.919 350.419 118.19 350.633 118.508C350.852 118.82 350.961 119.203 350.961 119.656C350.961 120.411 350.659 121.018 350.055 121.477C349.451 121.93 348.667 122.156 347.703 122.156C347.026 122.156 346.427 122.036 345.906 121.797C345.385 121.557 344.977 121.224 344.68 120.797C344.388 120.365 344.242 119.898 344.242 119.398H345.688C345.714 119.883 345.906 120.268 346.266 120.555C346.63 120.836 347.109 120.977 347.703 120.977C348.25 120.977 348.688 120.867 349.016 120.648C349.349 120.424 349.516 120.128 349.516 119.758ZM354.414 122H352.969V113.547H354.414V122ZM352.852 111.305C352.852 111.07 352.922 110.872 353.062 110.711C353.208 110.549 353.422 110.469 353.703 110.469C353.984 110.469 354.198 110.549 354.344 110.711C354.49 110.872 354.562 111.07 354.562 111.305C354.562 111.539 354.49 111.734 354.344 111.891C354.198 112.047 353.984 112.125 353.703 112.125C353.422 112.125 353.208 112.047 353.062 111.891C352.922 111.734 352.852 111.539 352.852 111.305ZM360.242 122.156C359.096 122.156 358.164 121.781 357.445 121.031C356.727 120.276 356.367 119.268 356.367 118.008V117.742C356.367 116.904 356.526 116.156 356.844 115.5C357.167 114.839 357.615 114.323 358.188 113.953C358.766 113.578 359.391 113.391 360.062 113.391C361.161 113.391 362.016 113.753 362.625 114.477C363.234 115.201 363.539 116.237 363.539 117.586V118.188H357.812C357.833 119.021 358.076 119.695 358.539 120.211C359.008 120.721 359.602 120.977 360.32 120.977C360.831 120.977 361.263 120.872 361.617 120.664C361.971 120.456 362.281 120.18 362.547 119.836L363.43 120.523C362.721 121.612 361.659 122.156 360.242 122.156ZM360.062 114.578C359.479 114.578 358.99 114.792 358.594 115.219C358.198 115.641 357.953 116.234 357.859 117H362.094V116.891C362.052 116.156 361.854 115.589 361.5 115.188C361.146 114.781 360.667 114.578 360.062 114.578ZM369.305 114.844C369.086 114.807 368.849 114.789 368.594 114.789C367.646 114.789 367.003 115.193 366.664 116V122H365.219V113.547H366.625L366.648 114.523C367.122 113.768 367.794 113.391 368.664 113.391C368.945 113.391 369.159 113.427 369.305 113.5V114.844ZM369.703 121.242C369.703 120.992 369.776 120.784 369.922 120.617C370.073 120.451 370.297 120.367 370.594 120.367C370.891 120.367 371.115 120.451 371.266 120.617C371.422 120.784 371.5 120.992 371.5 121.242C371.5 121.482 371.422 121.682 371.266 121.844C371.115 122.005 370.891 122.086 370.594 122.086C370.297 122.086 370.073 122.005 369.922 121.844C369.776 121.682 369.703 121.482 369.703 121.242Z" fill="#393A4A"/>
<path d="M81 167C81 164.791 82.7909 163 85 163H252C254.209 163 256 164.791 256 167V194C256 196.209 254.209 198 252 198H85C82.7909 198 81 196.209 81 194V167Z" fill="#0B5FFF"/>
<path d="M112.636 183.006C112.576 183.466 112.458 183.89 112.28 184.277C112.103 184.66 111.87 184.991 111.583 185.269C111.3 185.542 110.963 185.756 110.571 185.911C110.184 186.062 109.751 186.137 109.272 186.137C108.862 186.137 108.489 186.08 108.151 185.966C107.819 185.847 107.52 185.686 107.256 185.48C106.996 185.275 106.771 185.034 106.579 184.756C106.392 184.478 106.235 184.175 106.107 183.847C105.984 183.519 105.891 183.174 105.827 182.814C105.768 182.454 105.736 182.09 105.731 181.721V180.333C105.736 179.964 105.768 179.599 105.827 179.239C105.891 178.879 105.984 178.535 106.107 178.207C106.235 177.879 106.392 177.576 106.579 177.298C106.771 177.015 106.996 176.771 107.256 176.566C107.52 176.361 107.819 176.202 108.151 176.088C108.484 175.969 108.858 175.91 109.272 175.91C109.769 175.91 110.214 175.988 110.605 176.143C110.997 176.293 111.335 176.509 111.617 176.792C111.9 177.07 112.125 177.405 112.294 177.797C112.467 178.189 112.581 178.622 112.636 179.096H111.371C111.33 178.795 111.259 178.515 111.159 178.255C111.059 177.995 110.924 177.767 110.756 177.571C110.587 177.375 110.38 177.223 110.134 177.113C109.892 176.999 109.605 176.942 109.272 176.942C108.972 176.942 108.705 176.993 108.473 177.093C108.245 177.188 108.047 177.321 107.878 177.489C107.714 177.658 107.575 177.854 107.461 178.077C107.352 178.3 107.263 178.537 107.194 178.788C107.126 179.039 107.076 179.296 107.044 179.561C107.017 179.82 107.003 180.073 107.003 180.319V181.721C107.003 181.967 107.017 182.222 107.044 182.486C107.076 182.746 107.126 183.004 107.194 183.259C107.263 183.509 107.352 183.746 107.461 183.97C107.57 184.193 107.709 184.391 107.878 184.564C108.047 184.733 108.245 184.868 108.473 184.968C108.701 185.063 108.967 185.111 109.272 185.111C109.605 185.111 109.892 185.059 110.134 184.954C110.38 184.849 110.587 184.703 110.756 184.517C110.924 184.325 111.059 184.102 111.159 183.847C111.259 183.587 111.33 183.307 111.371 183.006H112.636ZM119.444 178.467C119.563 178.467 119.686 178.471 119.813 178.48C119.941 178.485 120.062 178.496 120.176 178.515C120.294 178.528 120.401 178.547 120.497 178.569C120.597 178.592 120.679 178.617 120.743 178.645L120.572 179.882C120.326 179.827 120.091 179.788 119.868 179.766C119.649 179.738 119.419 179.725 119.178 179.725C118.585 179.725 118.104 179.859 117.735 180.128C117.371 180.397 117.102 180.773 116.929 181.256V186H115.657V178.604H116.86L116.922 179.779C117.223 179.374 117.583 179.055 118.002 178.822C118.426 178.585 118.907 178.467 119.444 178.467ZM126.273 186.137C125.754 186.137 125.275 186.048 124.838 185.87C124.405 185.692 124.034 185.444 123.724 185.125C123.414 184.806 123.172 184.428 122.999 183.99C122.826 183.553 122.739 183.076 122.739 182.562V182.274C122.739 181.677 122.835 181.144 123.026 180.675C123.218 180.201 123.471 179.802 123.785 179.479C124.104 179.15 124.464 178.9 124.865 178.727C125.271 178.553 125.686 178.467 126.109 178.467C126.643 178.467 127.107 178.56 127.504 178.747C127.905 178.929 128.238 179.185 128.502 179.513C128.766 179.836 128.962 180.219 129.09 180.661C129.222 181.103 129.288 181.582 129.288 182.097V182.664H124.004C124.018 183.001 124.081 183.318 124.195 183.614C124.314 183.91 124.473 184.17 124.674 184.394C124.879 184.612 125.123 184.785 125.405 184.913C125.688 185.041 126 185.104 126.342 185.104C126.793 185.104 127.194 185.013 127.545 184.831C127.896 184.649 128.188 184.407 128.42 184.106L129.192 184.708C129.069 184.895 128.914 185.075 128.728 185.248C128.545 185.417 128.333 185.567 128.092 185.699C127.85 185.831 127.577 185.936 127.271 186.014C126.966 186.096 126.633 186.137 126.273 186.137ZM126.109 179.506C125.854 179.506 125.613 179.554 125.385 179.649C125.157 179.741 124.952 179.877 124.77 180.06C124.587 180.237 124.432 180.458 124.305 180.723C124.182 180.982 124.095 181.283 124.045 181.625H128.023V181.529C128.01 181.283 127.962 181.039 127.88 180.798C127.802 180.556 127.686 180.34 127.531 180.148C127.376 179.957 127.18 179.802 126.943 179.684C126.711 179.565 126.433 179.506 126.109 179.506ZM136.274 186C136.224 185.904 136.183 185.786 136.151 185.645C136.124 185.499 136.104 185.348 136.09 185.193C135.962 185.321 135.819 185.442 135.659 185.556C135.504 185.67 135.331 185.77 135.14 185.856C134.953 185.943 134.752 186.011 134.538 186.062C134.324 186.112 134.096 186.137 133.854 186.137C133.463 186.137 133.107 186.08 132.788 185.966C132.474 185.852 132.205 185.699 131.981 185.508C131.763 185.312 131.592 185.082 131.469 184.817C131.35 184.549 131.291 184.259 131.291 183.949C131.291 183.544 131.371 183.188 131.53 182.883C131.694 182.577 131.924 182.325 132.221 182.124C132.517 181.919 132.872 181.766 133.287 181.666C133.706 181.566 134.174 181.516 134.688 181.516H136.069V180.935C136.069 180.711 136.028 180.511 135.946 180.333C135.864 180.155 135.748 180.005 135.598 179.882C135.447 179.754 135.263 179.656 135.044 179.588C134.83 179.52 134.588 179.485 134.319 179.485C134.069 179.485 133.843 179.517 133.643 179.581C133.447 179.645 133.28 179.729 133.144 179.834C133.007 179.939 132.9 180.064 132.822 180.21C132.749 180.351 132.713 180.499 132.713 180.654H131.441C131.446 180.385 131.514 180.121 131.646 179.861C131.783 179.602 131.977 179.369 132.228 179.164C132.483 178.954 132.79 178.786 133.15 178.658C133.515 178.531 133.927 178.467 134.388 178.467C134.807 178.467 135.197 178.519 135.557 178.624C135.917 178.724 136.227 178.879 136.486 179.089C136.751 179.294 136.958 179.551 137.108 179.861C137.259 180.171 137.334 180.534 137.334 180.948V184.387C137.334 184.633 137.357 184.895 137.402 185.173C137.448 185.446 137.512 185.686 137.594 185.891V186H136.274ZM134.039 185.036C134.285 185.036 134.515 185.004 134.729 184.94C134.944 184.877 135.137 184.792 135.311 184.688C135.488 184.583 135.641 184.464 135.769 184.332C135.896 184.195 135.996 184.054 136.069 183.908V182.411H134.894C134.155 182.411 133.581 182.521 133.171 182.739C132.761 182.958 132.556 183.302 132.556 183.771C132.556 183.954 132.585 184.122 132.645 184.277C132.708 184.432 132.802 184.567 132.925 184.681C133.048 184.79 133.203 184.877 133.39 184.94C133.576 185.004 133.793 185.036 134.039 185.036ZM142.816 176.812V178.604H145.633V179.581H142.816V183.601C142.816 183.888 142.853 184.125 142.926 184.312C142.999 184.498 143.099 184.649 143.227 184.763C143.354 184.872 143.5 184.95 143.664 184.995C143.833 185.041 144.01 185.063 144.197 185.063C144.334 185.063 144.475 185.057 144.621 185.043C144.767 185.025 144.908 185.004 145.045 184.981C145.186 184.959 145.316 184.936 145.435 184.913C145.558 184.886 145.658 184.863 145.735 184.845L145.913 185.74C145.808 185.804 145.681 185.861 145.53 185.911C145.38 185.957 145.216 185.995 145.038 186.027C144.86 186.064 144.671 186.091 144.471 186.109C144.275 186.128 144.079 186.137 143.883 186.137C143.555 186.137 143.247 186.091 142.96 186C142.677 185.904 142.431 185.756 142.222 185.556C142.012 185.351 141.846 185.089 141.723 184.77C141.604 184.446 141.545 184.056 141.545 183.601V179.581H139.604V178.604H141.545V176.812H142.816ZM151.498 186.137C150.979 186.137 150.5 186.048 150.062 185.87C149.63 185.692 149.258 185.444 148.948 185.125C148.638 184.806 148.397 184.428 148.224 183.99C148.05 183.553 147.964 183.076 147.964 182.562V182.274C147.964 181.677 148.06 181.144 148.251 180.675C148.442 180.201 148.695 179.802 149.01 179.479C149.329 179.15 149.689 178.9 150.09 178.727C150.495 178.553 150.91 178.467 151.334 178.467C151.867 178.467 152.332 178.56 152.729 178.747C153.13 178.929 153.462 179.185 153.727 179.513C153.991 179.836 154.187 180.219 154.314 180.661C154.447 181.103 154.513 181.582 154.513 182.097V182.664H149.229C149.242 183.001 149.306 183.318 149.42 183.614C149.538 183.91 149.698 184.17 149.898 184.394C150.104 184.612 150.347 184.785 150.63 184.913C150.912 185.041 151.225 185.104 151.566 185.104C152.018 185.104 152.419 185.013 152.77 184.831C153.12 184.649 153.412 184.407 153.645 184.106L154.417 184.708C154.294 184.895 154.139 185.075 153.952 185.248C153.77 185.417 153.558 185.567 153.316 185.699C153.075 185.831 152.801 185.936 152.496 186.014C152.191 186.096 151.858 186.137 151.498 186.137ZM151.334 179.506C151.079 179.506 150.837 179.554 150.609 179.649C150.382 179.741 150.176 179.877 149.994 180.06C149.812 180.237 149.657 180.458 149.529 180.723C149.406 180.982 149.32 181.283 149.27 181.625H153.248V181.529C153.234 181.283 153.187 181.039 153.104 180.798C153.027 180.556 152.911 180.34 152.756 180.148C152.601 179.957 152.405 179.802 152.168 179.684C151.936 179.565 151.658 179.506 151.334 179.506ZM167.979 181.044L170.249 176.047H171.685L168.588 182.288L168.567 186H167.392L167.371 182.288L164.274 176.047H165.717L167.979 181.044ZM173.1 182.233C173.1 181.7 173.177 181.206 173.332 180.75C173.487 180.29 173.708 179.891 173.995 179.554C174.287 179.216 174.64 178.952 175.055 178.761C175.469 178.565 175.937 178.467 176.456 178.467C176.98 178.467 177.45 178.565 177.864 178.761C178.284 178.952 178.637 179.216 178.924 179.554C179.215 179.891 179.439 180.29 179.594 180.75C179.749 181.206 179.826 181.7 179.826 182.233V182.384C179.826 182.917 179.749 183.411 179.594 183.867C179.439 184.323 179.215 184.719 178.924 185.057C178.637 185.394 178.286 185.658 177.871 185.85C177.456 186.041 176.989 186.137 176.47 186.137C175.946 186.137 175.474 186.041 175.055 185.85C174.64 185.658 174.287 185.394 173.995 185.057C173.708 184.719 173.487 184.323 173.332 183.867C173.177 183.411 173.1 182.917 173.1 182.384V182.233ZM174.364 182.384C174.364 182.748 174.408 183.097 174.494 183.43C174.581 183.758 174.711 184.047 174.884 184.298C175.062 184.549 175.283 184.747 175.547 184.893C175.811 185.038 176.119 185.111 176.47 185.111C176.816 185.111 177.119 185.038 177.379 184.893C177.643 184.747 177.862 184.549 178.035 184.298C178.213 184.047 178.345 183.758 178.432 183.43C178.518 183.097 178.562 182.748 178.562 182.384V182.233C178.562 181.873 178.516 181.529 178.425 181.201C178.338 180.868 178.206 180.577 178.028 180.326C177.855 180.076 177.636 179.877 177.372 179.731C177.112 179.581 176.807 179.506 176.456 179.506C176.105 179.506 175.8 179.581 175.54 179.731C175.28 179.877 175.062 180.076 174.884 180.326C174.711 180.577 174.581 180.868 174.494 181.201C174.408 181.529 174.364 181.873 174.364 182.233V182.384ZM186.662 184.981C186.416 185.346 186.108 185.631 185.739 185.836C185.37 186.036 184.944 186.137 184.461 186.137C184.074 186.137 183.723 186.077 183.408 185.959C183.094 185.836 182.825 185.647 182.602 185.392C182.378 185.136 182.205 184.813 182.082 184.421C181.964 184.024 181.904 183.55 181.904 182.999V178.604H183.169V183.013C183.169 183.414 183.201 183.746 183.265 184.011C183.328 184.275 183.424 184.487 183.552 184.646C183.679 184.801 183.834 184.911 184.017 184.975C184.203 185.038 184.418 185.07 184.659 185.07C185.174 185.07 185.589 184.965 185.903 184.756C186.222 184.546 186.459 184.264 186.614 183.908V178.604H187.886V186H186.737L186.662 184.981ZM195.118 178.467C195.237 178.467 195.36 178.471 195.487 178.48C195.615 178.485 195.736 178.496 195.85 178.515C195.968 178.528 196.075 178.547 196.171 178.569C196.271 178.592 196.353 178.617 196.417 178.645L196.246 179.882C196 179.827 195.765 179.788 195.542 179.766C195.323 179.738 195.093 179.725 194.852 179.725C194.259 179.725 193.778 179.859 193.409 180.128C193.045 180.397 192.776 180.773 192.603 181.256V186H191.331V178.604H192.534L192.596 179.779C192.896 179.374 193.257 179.055 193.676 178.822C194.1 178.585 194.58 178.467 195.118 178.467ZM213.562 181.598C213.557 181.953 213.525 182.313 213.466 182.678C213.411 183.038 213.325 183.386 213.206 183.724C213.088 184.061 212.935 184.375 212.748 184.667C212.566 184.959 212.347 185.214 212.092 185.433C211.837 185.651 211.543 185.825 211.21 185.952C210.882 186.075 210.513 186.137 210.103 186.137C209.692 186.137 209.321 186.075 208.988 185.952C208.66 185.825 208.368 185.651 208.113 185.433C207.858 185.214 207.637 184.959 207.45 184.667C207.263 184.371 207.108 184.054 206.985 183.717C206.867 183.38 206.778 183.031 206.719 182.671C206.66 182.311 206.628 181.953 206.623 181.598V180.463C206.628 180.107 206.657 179.75 206.712 179.39C206.771 179.025 206.86 178.674 206.979 178.337C207.102 178 207.254 177.685 207.437 177.394C207.623 177.097 207.844 176.84 208.1 176.621C208.355 176.398 208.646 176.225 208.975 176.102C209.307 175.974 209.679 175.91 210.089 175.91C210.499 175.91 210.87 175.974 211.203 176.102C211.536 176.225 211.83 176.396 212.085 176.614C212.34 176.833 212.559 177.09 212.741 177.387C212.928 177.678 213.081 177.993 213.199 178.33C213.322 178.667 213.411 179.018 213.466 179.383C213.525 179.747 213.557 180.107 213.562 180.463V181.598ZM212.311 180.449C212.306 180.212 212.29 179.966 212.263 179.711C212.235 179.451 212.188 179.196 212.119 178.945C212.055 178.69 211.969 178.449 211.859 178.221C211.75 177.988 211.613 177.785 211.449 177.612C211.285 177.435 211.091 177.296 210.868 177.195C210.645 177.09 210.385 177.038 210.089 177.038C209.797 177.038 209.54 177.09 209.316 177.195C209.093 177.3 208.899 177.441 208.735 177.619C208.571 177.792 208.435 177.995 208.325 178.228C208.216 178.455 208.127 178.697 208.059 178.952C207.995 179.203 207.947 179.458 207.915 179.718C207.888 179.973 207.872 180.217 207.867 180.449V181.598C207.872 181.83 207.888 182.076 207.915 182.336C207.947 182.596 207.997 182.853 208.065 183.108C208.134 183.359 208.223 183.601 208.332 183.833C208.441 184.065 208.578 184.271 208.742 184.448C208.906 184.621 209.1 184.76 209.323 184.865C209.547 184.97 209.806 185.022 210.103 185.022C210.399 185.022 210.659 184.97 210.882 184.865C211.11 184.76 211.303 184.621 211.463 184.448C211.627 184.271 211.761 184.068 211.866 183.84C211.976 183.607 212.062 183.366 212.126 183.115C212.194 182.86 212.24 182.603 212.263 182.343C212.29 182.083 212.306 181.835 212.311 181.598V180.449ZM216.617 183.32L216.768 184.38L216.952 183.32L218.135 178.604H218.948L220.124 183.32L220.322 184.482L220.507 183.32L221.327 178.604H222.448L220.876 186H219.878L218.723 181.468L218.531 180.319L218.347 181.468L217.205 186H216.207L214.635 178.604H215.756L216.617 183.32ZM225.039 178.604L225.128 179.697C225.397 179.314 225.727 179.016 226.119 178.802C226.511 178.583 226.949 178.471 227.432 178.467C227.819 178.467 228.17 178.521 228.484 178.631C228.803 178.74 229.075 178.911 229.298 179.144C229.521 179.376 229.692 179.672 229.811 180.032C229.934 180.388 229.995 180.812 229.995 181.304V186H228.73V181.331C228.73 181.003 228.694 180.725 228.621 180.497C228.548 180.269 228.439 180.085 228.293 179.943C228.152 179.802 227.976 179.7 227.767 179.636C227.562 179.572 227.325 179.54 227.056 179.54C226.632 179.54 226.258 179.647 225.935 179.861C225.616 180.071 225.36 180.349 225.169 180.695V186H223.904V178.604H225.039Z" fill="white"/>
<path d="M298.618 184.927H303.485V186H297.354V176.047H298.618V184.927ZM308.865 186.137C308.346 186.137 307.867 186.048 307.43 185.87C306.997 185.692 306.625 185.444 306.315 185.125C306.006 184.806 305.764 184.428 305.591 183.99C305.418 183.553 305.331 183.076 305.331 182.562V182.274C305.331 181.677 305.427 181.144 305.618 180.675C305.81 180.201 306.062 179.802 306.377 179.479C306.696 179.15 307.056 178.9 307.457 178.727C307.863 178.553 308.277 178.467 308.701 178.467C309.234 178.467 309.699 178.56 310.096 178.747C310.497 178.929 310.829 179.185 311.094 179.513C311.358 179.836 311.554 180.219 311.682 180.661C311.814 181.103 311.88 181.582 311.88 182.097V182.664H306.596C306.609 183.001 306.673 183.318 306.787 183.614C306.906 183.91 307.065 184.17 307.266 184.394C307.471 184.612 307.715 184.785 307.997 184.913C308.28 185.041 308.592 185.104 308.934 185.104C309.385 185.104 309.786 185.013 310.137 184.831C310.488 184.649 310.779 184.407 311.012 184.106L311.784 184.708C311.661 184.895 311.506 185.075 311.319 185.248C311.137 185.417 310.925 185.567 310.684 185.699C310.442 185.831 310.169 185.936 309.863 186.014C309.558 186.096 309.225 186.137 308.865 186.137ZM308.701 179.506C308.446 179.506 308.204 179.554 307.977 179.649C307.749 179.741 307.544 179.877 307.361 180.06C307.179 180.237 307.024 180.458 306.896 180.723C306.773 180.982 306.687 181.283 306.637 181.625H310.615V181.529C310.602 181.283 310.554 181.039 310.472 180.798C310.394 180.556 310.278 180.34 310.123 180.148C309.968 179.957 309.772 179.802 309.535 179.684C309.303 179.565 309.025 179.506 308.701 179.506ZM318.866 186C318.816 185.904 318.775 185.786 318.743 185.645C318.716 185.499 318.695 185.348 318.682 185.193C318.554 185.321 318.41 185.442 318.251 185.556C318.096 185.67 317.923 185.77 317.731 185.856C317.545 185.943 317.344 186.011 317.13 186.062C316.916 186.112 316.688 186.137 316.446 186.137C316.054 186.137 315.699 186.08 315.38 185.966C315.065 185.852 314.797 185.699 314.573 185.508C314.354 185.312 314.184 185.082 314.061 184.817C313.942 184.549 313.883 184.259 313.883 183.949C313.883 183.544 313.963 183.188 314.122 182.883C314.286 182.577 314.516 182.325 314.812 182.124C315.109 181.919 315.464 181.766 315.879 181.666C316.298 181.566 316.765 181.516 317.28 181.516H318.661V180.935C318.661 180.711 318.62 180.511 318.538 180.333C318.456 180.155 318.34 180.005 318.189 179.882C318.039 179.754 317.854 179.656 317.636 179.588C317.422 179.52 317.18 179.485 316.911 179.485C316.66 179.485 316.435 179.517 316.234 179.581C316.038 179.645 315.872 179.729 315.735 179.834C315.599 179.939 315.492 180.064 315.414 180.21C315.341 180.351 315.305 180.499 315.305 180.654H314.033C314.038 180.385 314.106 180.121 314.238 179.861C314.375 179.602 314.569 179.369 314.819 179.164C315.075 178.954 315.382 178.786 315.742 178.658C316.107 178.531 316.519 178.467 316.979 178.467C317.399 178.467 317.788 178.519 318.148 178.624C318.508 178.724 318.818 178.879 319.078 179.089C319.342 179.294 319.55 179.551 319.7 179.861C319.851 180.171 319.926 180.534 319.926 180.948V184.387C319.926 184.633 319.949 184.895 319.994 185.173C320.04 185.446 320.104 185.686 320.186 185.891V186H318.866ZM316.631 185.036C316.877 185.036 317.107 185.004 317.321 184.94C317.535 184.877 317.729 184.792 317.902 184.688C318.08 184.583 318.233 184.464 318.36 184.332C318.488 184.195 318.588 184.054 318.661 183.908V182.411H317.485C316.747 182.411 316.173 182.521 315.763 182.739C315.353 182.958 315.147 183.302 315.147 183.771C315.147 183.954 315.177 184.122 315.236 184.277C315.3 184.432 315.394 184.567 315.517 184.681C315.64 184.79 315.795 184.877 315.981 184.94C316.168 185.004 316.385 185.036 316.631 185.036ZM327.261 178.467C327.379 178.467 327.502 178.471 327.63 178.48C327.757 178.485 327.878 178.496 327.992 178.515C328.111 178.528 328.218 178.547 328.313 178.569C328.414 178.592 328.496 178.617 328.56 178.645L328.389 179.882C328.143 179.827 327.908 179.788 327.685 179.766C327.466 179.738 327.236 179.725 326.994 179.725C326.402 179.725 325.921 179.859 325.552 180.128C325.187 180.397 324.918 180.773 324.745 181.256V186H323.474V178.604H324.677L324.738 179.779C325.039 179.374 325.399 179.055 325.818 178.822C326.242 178.585 326.723 178.467 327.261 178.467ZM331.957 178.604L332.046 179.697C332.315 179.314 332.645 179.016 333.037 178.802C333.429 178.583 333.867 178.471 334.35 178.467C334.737 178.467 335.088 178.521 335.402 178.631C335.721 178.74 335.993 178.911 336.216 179.144C336.439 179.376 336.61 179.672 336.729 180.032C336.852 180.388 336.913 180.812 336.913 181.304V186H335.648V181.331C335.648 181.003 335.612 180.725 335.539 180.497C335.466 180.269 335.357 180.085 335.211 179.943C335.07 179.802 334.894 179.7 334.685 179.636C334.479 179.572 334.243 179.54 333.974 179.54C333.55 179.54 333.176 179.647 332.853 179.861C332.534 180.071 332.278 180.349 332.087 180.695V186H330.822V178.604H331.957ZM349.026 176.047L350.646 181.023L352.396 176.047H353.969V186H352.738V182.028L352.841 177.872L351.002 183.231H350.277L348.589 178.016L348.691 182.028V186H347.461V176.047H349.026ZM355.691 182.233C355.691 181.7 355.769 181.206 355.924 180.75C356.079 180.29 356.3 179.891 356.587 179.554C356.879 179.216 357.232 178.952 357.646 178.761C358.061 178.565 358.528 178.467 359.048 178.467C359.572 178.467 360.041 178.565 360.456 178.761C360.875 178.952 361.229 179.216 361.516 179.554C361.807 179.891 362.031 180.29 362.186 180.75C362.34 181.206 362.418 181.7 362.418 182.233V182.384C362.418 182.917 362.34 183.411 362.186 183.867C362.031 184.323 361.807 184.719 361.516 185.057C361.229 185.394 360.878 185.658 360.463 185.85C360.048 186.041 359.581 186.137 359.062 186.137C358.537 186.137 358.066 186.041 357.646 185.85C357.232 185.658 356.879 185.394 356.587 185.057C356.3 184.719 356.079 184.323 355.924 183.867C355.769 183.411 355.691 182.917 355.691 182.384V182.233ZM356.956 182.384C356.956 182.748 356.999 183.097 357.086 183.43C357.173 183.758 357.302 184.047 357.476 184.298C357.653 184.549 357.874 184.747 358.139 184.893C358.403 185.038 358.711 185.111 359.062 185.111C359.408 185.111 359.711 185.038 359.971 184.893C360.235 184.747 360.454 184.549 360.627 184.298C360.805 184.047 360.937 183.758 361.023 183.43C361.11 183.097 361.153 182.748 361.153 182.384V182.233C361.153 181.873 361.108 181.529 361.017 181.201C360.93 180.868 360.798 180.577 360.62 180.326C360.447 180.076 360.228 179.877 359.964 179.731C359.704 179.581 359.399 179.506 359.048 179.506C358.697 179.506 358.392 179.581 358.132 179.731C357.872 179.877 357.653 180.076 357.476 180.326C357.302 180.577 357.173 180.868 357.086 181.201C356.999 181.529 356.956 181.873 356.956 182.233V182.384ZM369.302 178.467C369.42 178.467 369.543 178.471 369.671 178.48C369.799 178.485 369.919 178.496 370.033 178.515C370.152 178.528 370.259 178.547 370.354 178.569C370.455 178.592 370.537 178.617 370.601 178.645L370.43 179.882C370.184 179.827 369.949 179.788 369.726 179.766C369.507 179.738 369.277 179.725 369.035 179.725C368.443 179.725 367.962 179.859 367.593 180.128C367.228 180.397 366.959 180.773 366.786 181.256V186H365.515V178.604H366.718L366.779 179.779C367.08 179.374 367.44 179.055 367.859 178.822C368.283 178.585 368.764 178.467 369.302 178.467ZM376.131 186.137C375.611 186.137 375.133 186.048 374.695 185.87C374.262 185.692 373.891 185.444 373.581 185.125C373.271 184.806 373.03 184.428 372.856 183.99C372.683 183.553 372.597 183.076 372.597 182.562V182.274C372.597 181.677 372.692 181.144 372.884 180.675C373.075 180.201 373.328 179.802 373.643 179.479C373.962 179.15 374.322 178.9 374.723 178.727C375.128 178.553 375.543 178.467 375.967 178.467C376.5 178.467 376.965 178.56 377.361 178.747C377.762 178.929 378.095 179.185 378.359 179.513C378.624 179.836 378.82 180.219 378.947 180.661C379.079 181.103 379.146 181.582 379.146 182.097V182.664H373.861C373.875 183.001 373.939 183.318 374.053 183.614C374.171 183.91 374.331 184.17 374.531 184.394C374.736 184.612 374.98 184.785 375.263 184.913C375.545 185.041 375.857 185.104 376.199 185.104C376.65 185.104 377.051 185.013 377.402 184.831C377.753 184.649 378.045 184.407 378.277 184.106L379.05 184.708C378.927 184.895 378.772 185.075 378.585 185.248C378.403 185.417 378.191 185.567 377.949 185.699C377.708 185.831 377.434 185.936 377.129 186.014C376.824 186.096 376.491 186.137 376.131 186.137ZM375.967 179.506C375.712 179.506 375.47 179.554 375.242 179.649C375.014 179.741 374.809 179.877 374.627 180.06C374.445 180.237 374.29 180.458 374.162 180.723C374.039 180.982 373.952 181.283 373.902 181.625H377.881V181.529C377.867 181.283 377.819 181.039 377.737 180.798C377.66 180.556 377.544 180.34 377.389 180.148C377.234 179.957 377.038 179.802 376.801 179.684C376.568 179.565 376.29 179.506 375.967 179.506Z" fill="#6B6C7E"/>
<path d="M276 164H401V162H276V164ZM404 167V194H406V167H404ZM401 197H276V199H401V197ZM273 194V167H271V194H273ZM276 197C274.343 197 273 195.657 273 194H271C271 196.761 273.239 199 276 199V197ZM404 194C404 195.657 402.657 197 401 197V199C403.761 199 406 196.761 406 194H404ZM401 164C402.657 164 404 165.343 404 167H406C406 164.239 403.761 162 401 162V164ZM276 162C273.239 162 271 164.239 271 167H273C273 165.343 274.343 164 276 164V162Z" fill="#A7A9BC"/>
</svg>
