<svg width="36" height="24" viewBox="0 0 36 24" fill="none" xmlns="http://www.w3.org/2000/svg">
    <path d="M34 18L34 14.3C34 13.9022 34.158 13.5206 34.4393 13.2393C34.7206 12.958 35.1022 12.8 35.5 12.8L36 12.8V11.2L35.5 11.2C35.1022 11.2 34.7206 11.042 34.4393 10.7607C34.158 10.4794 34 10.0978 34 9.7L34 6C34 5.20435 33.6839 4.44129 33.1213 3.87868C32.5587 3.31607 31.7956 3 31 3L30 3L30 5L31 5C31.2652 5 31.5196 5.10536 31.7071 5.29289C31.8946 5.48043 32 5.73478 32 6L32 10.1C31.9999 10.521 32.1327 10.9313 32.3794 11.2725C32.6261 11.6136 32.9741 11.8682 33.374 12C32.9741 12.1318 32.6261 12.3864 32.3794 12.7275C32.1327 13.0687 31.9999 13.479 32 13.9L32 18C32 18.2652 31.8946 18.5196 31.7071 18.7071C31.5196 18.8946 31.2652 19 31 19H30L30 21H31C31.7956 21 32.5587 20.6839 33.1213 20.1213C33.6839 19.5587 34 18.7956 34 18Z" fill="#272833" />
    <path d="M2 18L2 14.3C2 13.9022 1.84196 13.5206 1.56066 13.2393C1.27936 12.958 0.897825 12.8 0.5 12.8L0 12.8L0 11.2L0.5 11.2C0.897825 11.2 1.27936 11.042 1.56066 10.7607C1.84196 10.4794 2 10.0978 2 9.7L2 6C2 5.20435 2.31607 4.44129 2.87868 3.87868C3.44129 3.31607 4.20435 3 5 3L6 3L6 5L5 5C4.73478 5 4.48043 5.10536 4.29289 5.29289C4.10536 5.48043 4 5.73478 4 6L4 10.1C4.0001 10.521 3.86735 10.9313 3.62064 11.2725C3.37393 11.6136 3.02586 11.8682 2.626 12C3.02586 12.1318 3.37393 12.3864 3.62064 12.7275C3.86735 13.0687 4.0001 13.479 4 13.9L4 18C4 18.2652 4.10536 18.5196 4.29289 18.7071C4.48043 18.8946 4.73478 19 5 19H6L6 21H5C4.20435 21 3.44129 20.6839 2.87868 20.1213C2.31607 19.5587 2 18.7956 2 18Z" fill="#272833" />
    <path d="M18 2C23.523 2 28 6.477 28 12C28 17.523 23.523 22 18 22C12.477 22 8 17.523 8 12C8 6.477 12.477 2 18 2ZM18 4C15.8783 4 13.8434 4.84285 12.3431 6.34315C10.8429 7.84344 10 9.87827 10 12C10 14.1217 10.8429 16.1566 12.3431 17.6569C13.8434 19.1571 15.8783 20 18 20C20.1217 20 22.1566 19.1571 23.6569 17.6569C25.1571 16.1566 26 14.1217 26 12C26 9.87827 25.1571 7.84344 23.6569 6.34315C22.1566 4.84285 20.1217 4 18 4ZM18 7C19.0526 7.0004 20.0782 7.33297 20.9307 7.95034C21.7832 8.56771 22.4192 9.43837 22.748 10.4383C23.0767 11.4382 23.0815 12.5164 22.7617 13.5192C22.4419 14.522 21.8137 15.3984 20.9668 16.0233C20.1198 16.6483 19.0972 16.99 18.0446 16.9998C16.9921 17.0096 15.9633 16.687 15.1049 16.0779C14.2464 15.4688 13.602 14.6043 13.2636 13.6076C12.9252 12.611 12.9099 11.5329 13.22 10.527C13.4539 11.0497 13.8603 11.4762 14.3711 11.7352C14.8818 11.9941 15.4661 12.0698 16.0259 11.9495C16.5858 11.8292 17.0874 11.5202 17.4468 11.0743C17.8061 10.6284 18.0014 10.0727 18 9.5C18.0001 9.01847 17.8612 8.54714 17.5999 8.14268C17.3386 7.73821 16.966 7.41781 16.527 7.22C16.993 7.077 17.487 7 18 7Z" fill="#272833" />
</svg>