<svg width="104" height="16" viewBox="0 0 104 16" fill="none" xmlns="http://www.w3.org/2000/svg">
<g clip-path="url(#clip0_501_33075)">
<path d="M27.1244 7.84879L33.7879 0H37.2196L30.5116 7.84879L37.2196 15.6669H33.7879L27.1244 7.84879ZM23.5818 15.6669V0H26.5931V15.6669H23.5818ZM36.6106 10.0507C36.6106 6.51511 39.4597 4.41216 42.5695 4.41216C45.6794 4.41216 48.5284 6.5165 48.5284 10.0507C48.5284 13.5849 45.6794 15.7115 42.5695 15.7115C39.4597 15.7115 36.6106 13.6072 36.6106 10.0507ZM42.5695 6.2991C40.9078 6.2991 39.1157 7.42653 39.1157 10.0507C39.1157 12.6749 40.9078 13.8246 42.5695 13.8246C44.2313 13.8246 46.0234 12.6972 46.0234 10.0507C46.0234 7.40423 44.2313 6.2991 42.5695 6.2991ZM54.4873 16.0014C52.096 16.0014 49.129 14.5994 49.129 10.1956C49.129 5.79183 52.096 4.41216 54.4873 4.41216C56.414 4.41216 57.9633 5.70264 58.4502 7.65926H58.6721V0H61.3506V15.6669H59.5127L58.8483 11.8192H58.6264C58.2505 14.1549 56.5901 16.0014 54.4859 16.0014H54.4873ZM54.9742 5.92422C52.9158 5.92422 51.8963 7.88224 51.8963 10.1956C51.8963 12.509 52.9144 14.4893 54.9742 14.4893C57.6304 14.4893 58.4502 12.109 58.4502 9.86255C58.4502 7.81674 57.077 5.92562 54.9742 5.92562V5.92422ZM68.4538 16.0014C64.9556 16.0014 62.1884 13.9765 62.1884 10.1956C62.1884 6.41477 64.8668 4.41216 68.3651 4.41216C72.4611 4.41216 74.3434 7.03632 74.2546 10.9747H64.8668C64.8668 13.1543 66.6603 14.0894 68.4316 14.0894C70.0032 14.0894 71.1101 13.3772 71.554 12.332H74.1658C73.2809 14.4224 71.332 16.0028 68.4538 16.0028V16.0014ZM68.3651 6.25869C65.9072 6.28099 64.8668 8.239 64.8668 9.61728H71.5526C71.5526 8.46059 70.7994 6.23639 68.3651 6.25869ZM78.8209 7.8474L85.4442 0H88.8911L82.222 7.84601L88.9604 15.6669H85.5135L78.8195 7.84601L78.8209 7.8474ZM75.3005 15.6683V0H78.3118V15.6669H75.3005V15.6683ZM90.4058 7.1492H89.2101V4.74662H93.1508V15.6683H90.4058V7.1492ZM89.5416 1.71414C89.5402 0.779026 90.3156 0 91.2449 0C92.1743 0 92.9497 0.779026 92.9497 1.71274C92.9497 2.64646 92.1965 3.42549 91.2449 3.42549C90.2934 3.42549 89.5402 2.66876 89.5402 1.71274L89.5416 1.71414ZM93.8818 6.77014V4.74523H97.2025L94.8333 1.56363H98.7962L98.3315 4.74523H103.07V6.77014H98.5535V12.0199C98.5535 13.5542 99.4176 14.1326 100.569 14.1326C101.322 14.1326 102.207 13.8873 103.071 13.5096V15.6669C102.097 15.8676 101.145 16 100.26 16C97.8239 16 95.9416 15.044 95.9416 11.9516V6.76875H93.8832L93.8818 6.77014Z" fill="white"/>
<path d="M15.6379 0H7.81897V7.85576H15.6379V0Z" fill="white"/>
<path d="M7.81897 7.85547H0V15.7112H7.81897V7.85547Z" fill="white"/>
<path d="M6.11426 7.85532H7.81898V6.14258C7.81898 7.09859 7.06579 7.85532 6.11426 7.85532Z" fill="white"/>
<path d="M9.52369 7.85547H7.81897V9.56821C7.81897 8.6122 8.57215 7.85547 9.52369 7.85547Z" fill="white"/>
</g>
<defs>
<clipPath id="clip0_501_33075">
<rect width="103.07" height="16" fill="white"/>
</clipPath>
</defs>
</svg>
